<svg xmlns="http://www.w3.org/2000/svg" xmlns:xlink="http://www.w3.org/1999/xlink" viewBox="0 0 542.34 266.01"><defs><style>.cls-1{fill:url(#linear-gradient);}.cls-2{fill:#a5a5a5;}.cls-3,.cls-4{fill:#fff;}.cls-4{opacity:0.5;}.cls-5{fill:#e25959;}.cls-6{fill:url(#linear-gradient-2);}</style><linearGradient id="linear-gradient" x1="370.42" y1="266.01" x2="370.42" gradientUnits="userSpaceOnUse"><stop offset="0.01" stop-color="#fff" stop-opacity="0.5"/><stop offset="1" stop-color="#f7f7f7"/></linearGradient><linearGradient id="linear-gradient-2" x1="120.06" y1="250.95" x2="120.06" y2="65.9" xlink:href="#linear-gradient"/></defs><title>Asset 8</title><g id="Layer_2" data-name="Layer 2"><g id="Home_v2" data-name="Home v2"><path class="cls-1" d="M542.34,7.73v242c0,8.94-7.89,16.29-17.49,16.29H205.24c-5.28,0-8-5.37-6.17-11.92L200,251h35.3c3.52,0,5.58-3.39,4.65-7.53l-16.8-75L251.66,66.52a15.58,15.58,0,0,1,10.75-10.15L528.61.4C536.16-1.19,542.34,2.06,542.34,7.73Z"/><path class="cls-2" d="M290.5,79.45c-2.13,8.86-11.14,17.36-20,18.84-8.67,1.44-13.68-4.51-11.37-13.14S270,68.54,278.52,66.87C287.15,65.17,292.59,70.73,290.5,79.45Z"/><path class="cls-3" d="M276.06,76.56c3.14-.59,5,1.51,4.21,4.76a9.89,9.89,0,0,1-7.17,6.89c-3.14.56-5-1.6-4.13-4.84A9.93,9.93,0,0,1,276.06,76.56Zm-2.54,10a6.79,6.79,0,0,0,4.91-4.91c.6-2.39-.6-3.87-2.78-3.47A6.79,6.79,0,0,0,270.79,83C270.17,85.43,271.33,86.94,273.52,86.56Z"/><path class="cls-2" d="M304.69,69.59a2,2,0,0,1,2.57,2.66,5.54,5.54,0,0,1-4.07,3.91,2,2,0,0,1-2.54-2.68A5.53,5.53,0,0,1,304.69,69.59ZM303.45,75a3.33,3.33,0,0,0,2.48-2.51c.28-1.25-.35-2-1.5-1.77a3.32,3.32,0,0,0-2.47,2.5C301.67,74.48,302.3,75.23,303.45,75Z"/><path class="cls-2" d="M307.63,74.14a1,1,0,0,0,.92.24.81.81,0,0,0,.69-.53c.06-.27-.19-.35-.61-.43s-1.14-.24-1-1A2.27,2.27,0,0,1,309.51,71a1.72,1.72,0,0,1,1.28.18l-.56.68a1.1,1.1,0,0,0-.81-.11.73.73,0,0,0-.65.47c0,.24.19.32.68.4.74.13,1.16.4,1,1.05a2.26,2.26,0,0,1-2,1.54,1.54,1.54,0,0,1-1.5-.33Z"/><path class="cls-2" d="M313.85,70.16c1.24-.23,2,.47,1.72,1.63a1.31,1.31,0,0,1-.06.23l-3.24.6c-.14.63.25,1,1,.83a2.15,2.15,0,0,0,1.21-.73l.77.26A3.73,3.73,0,0,1,313,74.37c-1.35.25-2.15-.48-1.88-1.67A3.6,3.6,0,0,1,313.85,70.16ZM312.43,72l2.06-.38c.05-.53-.28-.8-.84-.7A1.6,1.6,0,0,0,312.43,72Z"/><path class="cls-2" d="M317.7,67.48c.39-.07.65.17.57.54a1.18,1.18,0,0,1-.86.81c-.39.07-.64-.17-.56-.54A1.16,1.16,0,0,1,317.7,67.48Zm-1.92,6.26.86-4,1.19-.22-.86,4Z"/><path class="cls-2" d="M320.65,71.19a1.89,1.89,0,0,0,1.59.41,1.46,1.46,0,0,0,1.24-1c.09-.45-.18-.64-1.13-.84-1.14-.23-1.54-.68-1.37-1.47A3.29,3.29,0,0,1,323.57,66a2.13,2.13,0,0,1,1.77.33l-.8,1a1.66,1.66,0,0,0-1.22-.2,1.32,1.32,0,0,0-1.1.9c-.08.35.17.55,1,.7,1.2.22,1.88.57,1.67,1.59a3.35,3.35,0,0,1-2.82,2.4,2.3,2.3,0,0,1-2.27-.56Z"/><path class="cls-2" d="M328.2,67.48c1.27-.23,2,.47,1.8,1.64a1.12,1.12,0,0,1-.06.23l-3.33.62c-.13.64.27,1,1,.84a2.21,2.21,0,0,0,1.24-.74l.79.26a3.8,3.8,0,0,1-2.28,1.41c-1.39.25-2.23-.48-2-1.68A3.64,3.64,0,0,1,328.2,67.48Zm-1.44,1.91,2.12-.39c0-.54-.3-.82-.88-.71A1.61,1.61,0,0,0,326.76,69.39Z"/><path class="cls-2" d="M330.44,68l.17-.87.56-.1.21-1a2.45,2.45,0,0,1,1.87-2.08,1.26,1.26,0,0,1,1.12.22l-.74.85a.41.41,0,0,0-.37-.09c-.33.07-.55.35-.65.85l-.21,1.06,1-.19-.18.87-1,.19-.64,3.16-1.23.22.65-3.15Z"/><path class="cls-2" d="M333.08,68.62a3.36,3.36,0,0,1,2.56-2.53,1.38,1.38,0,0,1,1.4.4l.11-.56,1.24-.23-.8,4-1.24.22.12-.56a3.09,3.09,0,0,1-1.68,1C333.54,70.61,332.83,69.84,333.08,68.62Zm2.27.71a1.82,1.82,0,0,0,1.43-1.39c.14-.68-.27-1.07-1-.94a1.86,1.86,0,0,0-1.44,1.39C334.24,69.06,334.65,69.46,335.35,69.33Z"/><path class="cls-2" d="M341.18,62.55l-.62,3.19a3,3,0,0,1,1.57-.86c1-.19,1.58.33,1.39,1.3L343,68.75l-1.25.23.45-2.32c.11-.61-.18-.89-.76-.78a1.37,1.37,0,0,0-1.14,1l-.47,2.42-1.25.23,1.33-6.78Z"/><path class="cls-2" d="M300.49,81.19c.91-.16,1.34.48,1.08,1.61A2.69,2.69,0,0,1,299.62,85c-.9.15-1.33-.5-1.07-1.62A2.68,2.68,0,0,1,300.49,81.19Zm-.8,3.47a2.18,2.18,0,0,0,1.53-1.8c.22-1-.1-1.51-.8-1.38a2.18,2.18,0,0,0-1.53,1.79C298.67,84.24,299,84.79,299.69,84.66Z"/><path class="cls-2" d="M302,83.65c.06.38.4.55.9.47A1.5,1.5,0,0,0,304.14,83c.14-.63-.26-.94-.9-.82a2.22,2.22,0,0,0-1.1.61l.74-2,1.9-.34-.06.28-1.63.29-.46,1.23a1.68,1.68,0,0,1,.81-.38c.76-.14,1.19.27,1,1a2,2,0,0,1-1.61,1.45c-.6.11-1.05-.1-1.13-.56Z"/><path class="cls-2" d="M305,83.13c.06.38.41.55.91.47a1.49,1.49,0,0,0,1.22-1.12c.14-.63-.26-.94-.91-.83a2.22,2.22,0,0,0-1.1.61l.74-2,1.91-.34-.06.28-1.64.29-.46,1.23a1.81,1.81,0,0,1,.82-.38c.76-.13,1.2.27,1,1a2,2,0,0,1-1.61,1.46c-.61.11-1.06-.1-1.14-.56Z"/><path class="cls-2" d="M309.17,83.22l.74-3.34-.32.05.07-.31.65-.12-.8,3.66Z"/><path class="cls-2" d="M310.24,82.88c2.07-1.65,2.66-2.24,2.77-2.77s-.22-.82-.73-.73a1.56,1.56,0,0,0-1.13,1h-.3a2.08,2.08,0,0,1,1.52-1.35c.71-.13,1.16.29,1,1s-.65,1.14-2.42,2.56l2-.35-.07.3-2.68.47Z"/><path class="cls-2" d="M313.86,81.52c-.05.4.25.61.73.53a1.19,1.19,0,0,0,1-.88.52.52,0,0,0-.64-.67l-.15,0,.06-.24.12,0a1.26,1.26,0,0,0,1-.89c.09-.4-.18-.65-.59-.58a1.27,1.27,0,0,0-.9.78h-.27a1.65,1.65,0,0,1,1.23-1.06c.6-.11,1,.24.85.79a1.52,1.52,0,0,1-.78,1c.35,0,.56.34.46.81a1.7,1.7,0,0,1-1.4,1.25c-.67.11-1.07-.18-1-.74Z"/><path class="cls-2" d="M317.7,80.9c.06.37.43.55.94.46a1.49,1.49,0,0,0,1.23-1.13c.14-.64-.28-1-.94-.83a2.18,2.18,0,0,0-1.12.62l.72-2,2-.35-.06.29-1.67.3-.46,1.24a1.79,1.79,0,0,1,.83-.38c.79-.14,1.24.26,1.08,1a2,2,0,0,1-1.63,1.48c-.63.11-1.1-.1-1.18-.57Z"/><path class="cls-2" d="M320.59,80.08a2.49,2.49,0,0,1,.64-1.11l1.6-1.7.42-.08-1.48,1.57a1.49,1.49,0,0,1,.56-.22.81.81,0,0,1,1,1,2,2,0,0,1-1.63,1.5C320.85,81.24,320.46,80.73,320.59,80.08Zm.35,0c-.11.52.19.89.81.78A1.57,1.57,0,0,0,323,79.65a.63.63,0,0,0-.8-.81A1.63,1.63,0,0,0,320.94,80Z"/><path class="cls-2" d="M323.32,80.05l0-.15,2.52-3.18.34-.06-.55,2.7.45-.08-.06.29-.45.08-.15.72-.33,0,.15-.71Zm.5-.37,1.51-.26.46-2.25Z"/><path class="cls-2" d="M326.35,79.07A2.49,2.49,0,0,1,327,78l1.61-1.71.43-.08-1.49,1.58a1.56,1.56,0,0,1,.56-.22.81.81,0,0,1,1,1,2,2,0,0,1-1.63,1.51C326.62,80.23,326.22,79.72,326.35,79.07Zm.35-.06c-.11.53.2.9.82.79a1.57,1.57,0,0,0,1.25-1.16c.12-.58-.25-.92-.82-.82A1.63,1.63,0,0,0,326.7,79Z"/><path class="cls-2" d="M250.72,124.66c.9-.13,1.42.44,1.16,1.42a2.58,2.58,0,0,1-2,1.87c-.9.13-1.42-.44-1.16-1.42A2.62,2.62,0,0,1,250.72,124.66Zm-.78,2.92a2,2,0,0,0,1.53-1.44c.2-.74-.16-1.2-.85-1.1a2,2,0,0,0-1.53,1.43C248.89,127.21,249.26,127.67,249.94,127.58Z"/><path class="cls-2" d="M253.94,122.27l-.67,2.53a1.73,1.73,0,0,1,1.12-.67c.67-.09,1,.31.76,1.11l-.51,2-.4,0,.49-1.86c.17-.64,0-1-.56-.88a1.32,1.32,0,0,0-1.07.94l-.54,2-.4.06,1.38-5.21Z"/><path class="cls-2" d="M257.68,123.66c.86-.12,1.33.53,1.11,1.38l0,.1-2.67.38c-.19.74.18,1.19.89,1.09a2,2,0,0,0,1.21-.73l.25.13a2.52,2.52,0,0,1-1.57,1c-.94.13-1.42-.49-1.17-1.42A2.63,2.63,0,0,1,257.68,123.66Zm-1.51,1.6,2.26-.32c.11-.64-.25-1-.84-1A2,2,0,0,0,256.17,125.26Z"/><path class="cls-2" d="M260.27,123.38l-.13.51a1.8,1.8,0,0,1,1.16-.75c.68-.09,1,.32.77,1.12l-.5,2-.41,0,.48-1.87c.17-.65,0-1-.56-.89a1.49,1.49,0,0,0-1.15,1.18l-.47,1.82-.4.06.81-3.13Z"/><path class="cls-2" d="M264.63,122.67c.87-.13,1.35.52,1.13,1.38,0,0,0,.07,0,.1l-2.71.38c-.19.75.19,1.2.91,1.1a2,2,0,0,0,1.22-.73l.26.13a2.53,2.53,0,0,1-1.59,1c-.95.14-1.44-.49-1.2-1.42A2.64,2.64,0,0,1,264.63,122.67Zm-1.52,1.61,2.29-.33c.1-.64-.26-1-.86-1A2,2,0,0,0,263.11,124.28Z"/><path class="cls-2" d="M266.3,125.06a.19.19,0,0,1,.21.26.49.49,0,0,1-.37.35c-.16,0-.25-.1-.21-.27A.49.49,0,0,1,266.3,125.06Z"/><path class="cls-2" d="M267.35,124.73a.61.61,0,0,0,.72.34,1,1,0,0,0,.84-.69c.09-.38-.21-.49-.62-.61s-.76-.23-.63-.74a1.41,1.41,0,0,1,1.17-1,.65.65,0,0,1,.77.33l-.27.22a.49.49,0,0,0-.56-.24.84.84,0,0,0-.72.58c-.08.31.16.39.52.49.52.14.89.33.75.89a1.48,1.48,0,0,1-1.3,1.07c-.46.06-.82-.06-1-.47Z"/><path class="cls-2" d="M272,121.61c.89-.12,1.38.53,1.17,1.39l0,.11-2.74.39c-.19.74.2,1.2.93,1.1a2,2,0,0,0,1.23-.74l.27.13a2.5,2.5,0,0,1-1.6,1c-1,.14-1.47-.49-1.24-1.43A2.68,2.68,0,0,1,272,121.61Zm-1.52,1.63,2.32-.33c.1-.65-.27-1.06-.88-1A1.93,1.93,0,0,0,270.44,123.24Z"/><path class="cls-2" d="M273.86,121.75l.08-.33.3,0,.28-1.14A1.41,1.41,0,0,1,275.6,119a.55.55,0,0,1,.58.22l-.29.28a.28.28,0,0,0-.32-.12c-.28,0-.51.29-.63.74l-.28,1.17.78-.11-.08.33-.78.11-.7,2.84-.41.06.69-2.84Z"/><path class="cls-2" d="M275.28,122.76a2.54,2.54,0,0,1,1.93-1.9.89.89,0,0,1,1.08.6l.16-.68.42-.06-.77,3.18-.42,0,.17-.68a2.24,2.24,0,0,1-1.46,1C275.51,124.35,275,123.73,275.28,122.76Zm1.3,1.08a1.94,1.94,0,0,0,1.51-1.48c.18-.76-.18-1.24-.87-1.14a1.94,1.94,0,0,0-1.51,1.48C275.52,123.46,275.89,123.94,276.58,123.84Z"/><path class="cls-2" d="M280.78,118.37l-.62,2.59a1.72,1.72,0,0,1,1.16-.69c.71-.1,1,.31.84,1.13l-.47,2-.42.06.45-1.9c.16-.67-.07-1-.61-.91a1.38,1.38,0,0,0-1.11,1l-.5,2.08-.42.06,1.28-5.33Z"/><path class="cls-2" d="M286,118.77c1.28-.18,2.32.53,1.93,2.19-.16.71-.59,1.4-1.14,1.47a.46.46,0,0,1-.55-.31,2.14,2.14,0,0,1-1.4.95c-.81.11-1.27-.45-1.06-1.36a2.36,2.36,0,0,1,1.8-1.76.83.83,0,0,1,1,.57l.15-.65.31,0-.42,1.82c-.08.33,0,.51.26.48s.57-.45.72-1.08c.35-1.52-.59-2.09-1.67-1.94a3.61,3.61,0,0,0-2.79,2.64c-.3,1.27.36,2.18,1.65,2a3.1,3.1,0,0,0,1.81-1l.27.15a3.55,3.55,0,0,1-2.17,1.23c-1.48.2-2.3-.8-1.94-2.3A4.16,4.16,0,0,1,286,118.77Zm-1.88,2.89c-.18.74.19,1.19.85,1.09a1.84,1.84,0,0,0,1.45-1.41c.18-.75-.19-1.2-.85-1.1A1.85,1.85,0,0,0,284.1,121.66Z"/><path class="cls-2" d="M287.91,123.29l.4-.22c.09.41.51.63,1.08.55a1.85,1.85,0,0,0,1.55-1.42l.19-.8a2.23,2.23,0,0,1-1.49,1c-.89.13-1.39-.51-1.16-1.48a2.55,2.55,0,0,1,1.95-1.93.93.93,0,0,1,1.12.61l.16-.69.43-.06-.76,3.3A2.38,2.38,0,0,1,289.3,124C288.51,124.11,288,123.86,287.91,123.29Zm1.92-1.31a2,2,0,0,0,1.53-1.5c.18-.78-.2-1.25-.92-1.15a2,2,0,0,0-1.52,1.5C288.74,121.6,289.12,122.08,289.83,122Z"/><path class="cls-2" d="M293.14,118.67l.43-.06-.12.52a1.7,1.7,0,0,1,1.14-.76c.5-.07.84.15.87.58a1.87,1.87,0,0,1,1.25-.89c.64-.09,1,.29.84,1l-.48,2.12-.44.07.45-2c.14-.61-.1-.92-.57-.85a1.44,1.44,0,0,0-1.12,1.14l-.44,1.94-.44.06.47-2c.12-.56-.1-.87-.58-.8a1.45,1.45,0,0,0-1.12,1.14l-.44,1.94-.44.06Z"/><path class="cls-2" d="M298.19,119.51a2.54,2.54,0,0,1,2-1.94,1,1,0,0,1,1.15.6l.15-.69.44-.06-.72,3.24-.43.06.15-.7a2.31,2.31,0,0,1-1.51,1C298.48,121.13,298,120.5,298.19,119.51Zm1.39,1.1a2,2,0,0,0,1.55-1.52c.17-.78-.23-1.26-.95-1.15a1.93,1.93,0,0,0-1.54,1.51C298.46,120.22,298.86,120.71,299.58,120.61Z"/><path class="cls-2" d="M303.43,116a.19.19,0,0,1,.23.24.45.45,0,0,1-.35.34.19.19,0,0,1-.23-.25A.44.44,0,0,1,303.43,116Zm-1.2,4.5.71-3.24.44-.07-.71,3.25Z"/><path class="cls-2" d="M303.71,120.3l1.19-5.44.44-.06-1.19,5.44Z"/><path class="cls-2" d="M305.41,119.55a.21.21,0,0,1,.24.27.48.48,0,0,1-.38.36.2.2,0,0,1-.24-.27A.5.5,0,0,1,305.41,119.55Z"/><path class="cls-2" d="M306.53,118.33a2.65,2.65,0,0,1,2.13-2,1.39,1.39,0,0,1,1,.2l-.27.32a1,1,0,0,0-.79-.15,2,2,0,0,0-1.65,1.54c-.16.76.26,1.28,1.07,1.16a1.84,1.84,0,0,0,.9-.38l.15.26a2.54,2.54,0,0,1-1.19.51A1.14,1.14,0,0,1,306.53,118.33Z"/><path class="cls-2" d="M312.1,115.86c1-.15,1.66.44,1.45,1.47a2.68,2.68,0,0,1-2.18,2c-1,.14-1.66-.46-1.44-1.49A2.65,2.65,0,0,1,312.1,115.86Zm-.65,3.07a2,2,0,0,0,1.63-1.53.87.87,0,0,0-1.06-1.15,2,2,0,0,0-1.62,1.53A.87.87,0,0,0,311.45,118.93Z"/><path class="cls-2" d="M314.66,115.59l.46-.07-.11.53a1.74,1.74,0,0,1,1.17-.78c.52-.07.87.15.92.59a1.89,1.89,0,0,1,1.29-.91c.66-.09,1.06.29.9,1.07l-.44,2.16-.46.06.42-2c.12-.62-.13-.94-.63-.87a1.48,1.48,0,0,0-1.14,1.17l-.41,2-.45.06.43-2.08c.12-.57-.13-.88-.62-.81a1.46,1.46,0,0,0-1.15,1.17l-.41,2-.45.06Z"/><path class="cls-2" d="M251.05,118.43l1.31-4.89,2.41-.37-.14.53-1.84.28-.44,1.64,1.77-.27-.14.54-1.77.27-.44,1.65,1.84-.27-.14.53Z"/><path class="cls-2" d="M255,114.92l.55-.09-.12.46a1.73,1.73,0,0,1,1.08-.7c.46-.07.78.12.82.48a1.92,1.92,0,0,1,1.2-.78c.62-.1,1,.25.78,1l-.53,2-.56.08.49-1.86c.13-.51-.06-.78-.48-.72a1.31,1.31,0,0,0-1,1l-.47,1.79-.56.09.5-1.9c.13-.48-.06-.74-.47-.68a1.33,1.33,0,0,0-1,1l-.47,1.79-.55.09Z"/><path class="cls-2" d="M259.78,115.65a2.48,2.48,0,0,1,1.87-1.84.81.81,0,0,1,1,.49l.15-.57.55-.09-.79,3.07-.55.09.14-.58a2.2,2.2,0,0,1-1.32.85C260,117.19,259.53,116.58,259.78,115.65Zm1.31.89a1.74,1.74,0,0,0,1.31-1.28c.17-.66-.13-1.07-.73-1a1.74,1.74,0,0,0-1.32,1.28C260.18,116.22,260.49,116.63,261.09,116.54Z"/><path class="cls-2" d="M264.8,112.12c.19,0,.31.11.25.31a.57.57,0,0,1-.44.41c-.19,0-.31-.11-.26-.31A.6.6,0,0,1,264.8,112.12Zm-1.42,4.47.79-3.08.56-.08-.79,3.07Z"/><path class="cls-2" d="M264.79,116.38l1.31-5.16.56-.09-1.31,5.16Z"/><path class="cls-2" d="M357.23,109.79l0-.32.92-.13.44-1.42.33,0-.44,1.41,1.41-.2.43-1.42.33,0-.43,1.41.65-.09-.06.32-.69.1-.43,1.4.89-.13-.05.32-.93.13-.44,1.42-.33,0,.43-1.42-1.4.2-.43,1.42-.34,0,.44-1.42-.64.09.05-.31.69-.1.43-1.4ZM358,111l1.41-.2.43-1.4-1.4.21Z"/><path class="cls-2" d="M361.52,109.22l.06-.36.36,0,.21-1.23a1.42,1.42,0,0,1,1.15-1.31.74.74,0,0,1,.71.22l-.31.32a.4.4,0,0,0-.4-.14c-.33,0-.58.33-.66.81l-.21,1.26.92-.13-.06.35-.92.13-.51,3-.49.07.51-3Z"/><path class="cls-2" d="M363.88,108.53l.49-.07-.1.57a1.59,1.59,0,0,1,1.18-.83,1.57,1.57,0,0,1,.59,0l-.26.43a1.13,1.13,0,0,0-.49,0,1.45,1.45,0,0,0-1.14,1.19l-.34,2.06-.5.07Z"/><path class="cls-2" d="M366.94,106.83a.22.22,0,0,1,.27.26.44.44,0,0,1-.37.35.22.22,0,0,1-.28-.26A.47.47,0,0,1,366.94,106.83Zm-1,4.74.56-3.41.5-.07-.56,3.41Z"/><path class="cls-2" d="M369.79,107.58a1.29,1.29,0,0,1,1.61,1.48s0,.07,0,.11l-3.3.47c-.13.81.4,1.3,1.28,1.17a2.24,2.24,0,0,0,1.41-.82l.34.14a2.81,2.81,0,0,1-1.83,1.08c-1.16.16-1.86-.51-1.7-1.53A2.71,2.71,0,0,1,369.79,107.58Zm-1.65,1.78,2.8-.4a1,1,0,0,0-1.21-1A2,2,0,0,0,368.14,109.36Z"/><path class="cls-2" d="M373,107.22l-.09.56a2,2,0,0,1,1.36-.84c.83-.12,1.27.32,1.13,1.2l-.33,2.15-.51.07.32-2.06c.11-.71-.2-1-.84-1a1.51,1.51,0,0,0-1.27,1.31l-.31,2-.5.07.54-3.43Z"/><path class="cls-2" d="M376.22,108.44a2.59,2.59,0,0,1,2.12-2.09,1.26,1.26,0,0,1,1.41.63l.46-3.07.51-.07-.87,5.78-.51.07.11-.74a2.46,2.46,0,0,1-1.67,1.06A1.28,1.28,0,0,1,376.22,108.44Zm1.75,1.15a2,2,0,0,0,1.65-1.63,1,1,0,0,0-1.22-1.21,2,2,0,0,0-1.66,1.62A1,1,0,0,0,378,109.59Z"/><path class="cls-2" d="M380.84,109.26a.49.49,0,0,1,.41-.39c.21,0,.36.09.32.36a2,2,0,0,1-.7,1l-.12-.09a1.5,1.5,0,0,0,.34-.65C380.92,109.53,380.81,109.42,380.84,109.26Z"/><path class="cls-2" d="M384.47,105.89l0-.32,1-.14.41-1.45.35,0-.42,1.45,1.48-.21.41-1.45.35,0-.42,1.45.69-.1,0,.32-.73.11-.41,1.43.94-.13,0,.32-1,.14-.41,1.45-.35,0,.41-1.45-1.47.21-.41,1.45-.35,0,.41-1.45-.67.09,0-.32.72-.1.41-1.43Zm.86,1.25,1.48-.21.41-1.43-1.48.21Z"/><path class="cls-2" d="M388.49,109.25,389,109c.17.45.7.68,1.4.58a1.88,1.88,0,0,0,1.71-1.56l.13-.87a2.47,2.47,0,0,1-1.7,1.08,1.31,1.31,0,0,1-1.62-1.58,2.56,2.56,0,0,1,2.14-2.11,1.28,1.28,0,0,1,1.45.63l.11-.75.51-.07-.49,3.58a2.45,2.45,0,0,1-2.31,2.07C389.33,110.13,388.71,109.86,388.49,109.25Zm2.18-1.45a2,2,0,0,0,1.68-1.64,1,1,0,0,0-1.27-1.23,2,2,0,0,0-1.68,1.64A1,1,0,0,0,390.67,107.8Z"/><path class="cls-2" d="M394.17,104.19l1.12,2.71,1.77-3.12.6-.09-3.33,5.64-.6.09,1.19-2-1.34-3.15Z"/><path class="cls-2" d="M398.16,103.62l.53-.08-.08.57a1.88,1.88,0,0,1,1.3-.85c.62-.09,1.06.15,1.16.61a2,2,0,0,1,1.42-1c.78-.11,1.29.29,1.18,1.12l-.3,2.31-.53.07.28-2.17c.08-.66-.25-1-.83-.91a1.45,1.45,0,0,0-1.22,1.26l-.28,2.11-.53.08.29-2.22c.08-.62-.24-1-.82-.87a1.49,1.49,0,0,0-1.23,1.26l-.28,2.11-.53.08Z"/><path class="cls-2" d="M407.63,99.92l-.39,3.13A2.57,2.57,0,0,1,409,102a1.37,1.37,0,0,1,1.71,1.6,2.57,2.57,0,0,1-2.18,2.15,1.37,1.37,0,0,1-1.51-.64l-.1.75-.53.08.74-5.9Zm-.54,4.14c-.11.85.45,1.37,1.34,1.24a2,2,0,0,0,1.7-1.67c.11-.84-.46-1.36-1.34-1.23A2,2,0,0,0,407.09,104.06Z"/><path class="cls-2" d="M411.58,103.63l.24-2,.54-.08-.23,1.89c-.12,1,.16,1.3.95,1.19s1.16-.55,1.28-1.51l.22-1.89.54-.07-.23,2a2,2,0,0,1-1.86,1.91C411.91,105.23,411.45,104.76,411.58,103.63Z"/><path class="cls-2" d="M415.85,102.82a2.58,2.58,0,0,1,2.19-2.16,1.44,1.44,0,0,1,1.55.63l.36-3.16.54-.08-.68,6-.54.08.08-.76a2.56,2.56,0,0,1-1.75,1.1A1.4,1.4,0,0,1,415.85,102.82Zm1.93,1.17a2,2,0,0,0,1.71-1.68c.1-.86-.47-1.38-1.37-1.25a2,2,0,0,0-1.71,1.68C416.31,103.6,416.88,104.12,417.78,104Z"/><path class="cls-2" d="M421,102.09a2.58,2.58,0,0,1,2.2-2.17,1.46,1.46,0,0,1,1.57.63l.35-3.17.54-.08-.65,6-.55.08.08-.77a2.56,2.56,0,0,1-1.76,1.11A1.42,1.42,0,0,1,421,102.09Zm2,1.17a2,2,0,0,0,1.72-1.69c.09-.86-.49-1.38-1.4-1.25a2,2,0,0,0-1.72,1.69A1.1,1.1,0,0,0,423,103.26Z"/><path class="cls-2" d="M426.54,99.55l1.28,2.77,1.77-3.21.63-.09-3.34,5.8-.62.08,1.19-2-1.54-3.22Z"/><path class="cls-2" d="M358.94,97.65l.1-.59,4-.62-.1.6-1.66.25-.8,4.76-.71.11.81-4.76Z"/><path class="cls-2" d="M362.11,100.18a2.57,2.57,0,0,1,2.07-2,1.17,1.17,0,0,1,1.28.52l.1-.63.68-.1-.55,3.34-.68.1.1-.62a2.39,2.39,0,0,1-1.52.94A1.21,1.21,0,0,1,362.11,100.18Zm1.75.93a1.75,1.75,0,0,0,1.45-1.41.83.83,0,0,0-1-1,1.76,1.76,0,0,0-1.46,1.42A.83.83,0,0,0,363.86,101.11Z"/><path class="cls-2" d="M368.85,97.43a1.17,1.17,0,0,1,1.29.52l.11-.63.68-.1-.56,3.44a2.46,2.46,0,0,1-2.27,2c-.93.13-1.52-.11-1.72-.7l.61-.34c.14.38.61.57,1.2.49a1.72,1.72,0,0,0,1.5-1.37l.12-.72a2.45,2.45,0,0,1-1.54.95,1.21,1.21,0,0,1-1.49-1.51A2.54,2.54,0,0,1,368.85,97.43Zm-.31,3A1.74,1.74,0,0,0,370,99c.12-.72-.32-1.15-1.06-1a1.76,1.76,0,0,0-1.46,1.42A.85.85,0,0,0,368.54,100.41Z"/><path class="cls-2" d="M371.69,99.61a1,1,0,0,0,.87.26.89.89,0,0,0,.81-.64c.05-.35-.29-.44-.76-.54s-1-.22-.9-.79a1.57,1.57,0,0,1,1.39-1.12,1.19,1.19,0,0,1,1,.28l-.38.33a.81.81,0,0,0-.7-.16.76.76,0,0,0-.71.54c0,.29.23.36.68.45.66.14,1.12.34,1,.92a1.62,1.62,0,0,1-1.52,1.21,1.21,1.21,0,0,1-1.29-.42Z"/><path class="cls-2" d="M243.82,150.18l.39-.05.48,5-.45.05-.14-1.62-2,.23-1,1.76-.45,0Zm.24,3-.21-2.43-1.55,2.63Z"/><path class="cls-2" d="M245.25,153.51a2.63,2.63,0,0,1,2.06-1.92,1.16,1.16,0,0,1,.92.25l-.27.3a.84.84,0,0,0-.7-.17,2,2,0,0,0-1.6,1.49c-.2.76.15,1.3.89,1.22a1.69,1.69,0,0,0,.84-.36l.12.27a2.35,2.35,0,0,1-1.11.48C245.49,155.17,245,154.5,245.25,153.51Z"/><path class="cls-2" d="M248.36,153.15a2.63,2.63,0,0,1,2.07-1.92,1.14,1.14,0,0,1,.93.24l-.27.31a.9.9,0,0,0-.71-.18,2,2,0,0,0-1.6,1.51c-.2.76.15,1.3.89,1.22a1.77,1.77,0,0,0,.85-.36l.12.26a2.16,2.16,0,0,1-1.12.48C248.61,154.82,248.1,154.14,248.36,153.15Z"/><path class="cls-2" d="M252.14,151.13l.41,0-.14.55a1.42,1.42,0,0,1,1.06-.75.9.9,0,0,1,.48.05l-.27.4a.7.7,0,0,0-.39-.05,1.44,1.44,0,0,0-1.07,1.1l-.51,2-.41,0Z"/><path class="cls-2" d="M253.63,152.55a2.54,2.54,0,0,1,2-1.92.89.89,0,0,1,1,.66l.18-.7.41-.05-.84,3.3-.41,0,.18-.71a2.18,2.18,0,0,1-1.46,1C253.82,154.23,253.37,153.55,253.63,152.55Zm1.25,1.18a2,2,0,0,0,1.53-1.5c.2-.79-.14-1.3-.83-1.22a1.93,1.93,0,0,0-1.52,1.49C253.85,153.29,254.2,153.8,254.88,153.73Z"/><path class="cls-2" d="M257.22,153.53a.47.47,0,0,1,.38-.35c.17,0,.27.1.21.35a2.24,2.24,0,0,1-.69,1l-.08-.09a1.81,1.81,0,0,0,.35-.61C257.25,153.8,257.18,153.68,257.22,153.53Z"/><path class="cls-2" d="M263.57,147.75a1.53,1.53,0,0,1,1.63.67l-.36.3a1.3,1.3,0,0,0-1.36-.55,3.39,3.39,0,0,0-2.59,2.56c-.32,1.29.27,2.25,1.4,2.12a2.77,2.77,0,0,0,2.23-1.95l.05-.19-1.84.21.09-.38,2.29-.27-.1.42a3.44,3.44,0,0,1-2.83,2.59c-1.4.16-2.14-1-1.75-2.49A4,4,0,0,1,263.57,147.75Z"/><path class="cls-2" d="M267,147.22l-.66,2.7a1.7,1.7,0,0,1,1.17-.68c.72-.08,1,.36.83,1.22l-.51,2.08-.43.05.49-2c.17-.69-.05-1-.6-1a1.36,1.36,0,0,0-1.13,1l-.53,2.18-.42.05,1.37-5.57Z"/><path class="cls-2" d="M269,150.79a2.56,2.56,0,0,1,2-1.95.93.93,0,0,1,1.09.67l.18-.71.42-.05-.8,3.34-.43,0,.17-.72a2.2,2.2,0,0,1-1.49,1C269.18,152.49,268.7,151.81,269,150.79Zm1.31,1.19a1.92,1.92,0,0,0,1.55-1.52c.2-.8-.17-1.32-.88-1.23a1.94,1.94,0,0,0-1.54,1.51C269.19,151.54,269.56,152.06,270.26,152Z"/><path class="cls-2" d="M274.05,148.58l-.13.54a1.76,1.76,0,0,1,1.23-.77c.71-.08,1,.37.83,1.23l-.5,2.1-.43,0,.48-2c.16-.68-.06-1-.61-1a1.51,1.51,0,0,0-1.21,1.24l-.46,2-.43,0,.8-3.35Z"/><path class="cls-2" d="M276.62,149.91a2.54,2.54,0,0,1,2-2,1,1,0,0,1,1.12.67l.17-.72.43-.05-.79,3.37-.43,0,.17-.72a2.26,2.26,0,0,1-1.51,1C276.87,151.62,276.38,150.93,276.62,149.91Zm1.35,1.2a2,2,0,0,0,1.56-1.53c.19-.82-.18-1.33-.9-1.25a2,2,0,0,0-1.56,1.53C276.88,150.67,277.26,151.19,278,151.11Z"/><path class="cls-2" d="M280.8,150.54a.22.22,0,0,1,.24.29.51.51,0,0,1-.39.36c-.17,0-.27-.11-.23-.29A.5.5,0,0,1,280.8,150.54Z"/><path class="cls-2" d="M243.82,145.46l1.38-5.14.58-.07-1.23,4.58,1.9-.24-.15.57Z"/><path class="cls-2" d="M249.1,141.61c.94-.12,1.48.49,1.21,1.49A2.64,2.64,0,0,1,248.2,145c-.94.11-1.47-.5-1.21-1.5A2.66,2.66,0,0,1,249.1,141.61Zm-.76,2.88a1.78,1.78,0,0,0,1.39-1.31c.18-.69-.15-1.12-.77-1a1.77,1.77,0,0,0-1.39,1.31C247.39,144.13,247.72,144.56,248.34,144.49Z"/><path class="cls-2" d="M250.74,143.05a2.68,2.68,0,0,1,2.07-1.91,1.12,1.12,0,0,1,.91.22l-.35.41a.82.82,0,0,0-.62-.13,1.8,1.8,0,0,0-1.42,1.34c-.17.66.12,1.14.8,1.06a1.5,1.5,0,0,0,.73-.3l.15.35a2.23,2.23,0,0,1-1.09.47C251,144.67,250.49,144,250.74,143.05Z"/><path class="cls-2" d="M253.78,142.67a2.5,2.5,0,0,1,1.92-1.89.85.85,0,0,1,1,.55l.15-.6.57-.07-.83,3.23L256,144l.16-.61a2.14,2.14,0,0,1-1.36.85C254,144.31,253.53,143.65,253.78,142.67Zm1.33,1a1.72,1.72,0,0,0,1.35-1.31c.18-.7-.13-1.13-.74-1.06a1.75,1.75,0,0,0-1.35,1.32C254.19,143.29,254.5,143.73,255.11,143.65Z"/><path class="cls-2" d="M258.35,140.54l.31-1.21.57-.07-.3,1.21.72-.1-.12.47-.72.09-.47,1.83c-.08.32,0,.48.21.45a.79.79,0,0,0,.28-.1l.13.38a1.43,1.43,0,0,1-.68.29c-.49.06-.68-.28-.52-.91l.47-1.87-.33.05.12-.47Z"/><path class="cls-2" d="M260.85,138.84c.19,0,.31.13.26.34a.62.62,0,0,1-.46.43c-.19,0-.31-.13-.26-.34A.61.61,0,0,1,260.85,138.84Zm-1.47,4.7.82-3.24.57-.07-.82,3.24Z"/><path class="cls-2" d="M263.13,139.84c1-.13,1.53.49,1.28,1.51a2.66,2.66,0,0,1-2.15,1.94c-1,.12-1.52-.5-1.27-1.52A2.66,2.66,0,0,1,263.13,139.84Zm-.73,2.91a1.78,1.78,0,0,0,1.41-1.33c.17-.69-.18-1.13-.81-1a1.78,1.78,0,0,0-1.41,1.33C261.42,142.39,261.76,142.83,262.4,142.75Z"/><path class="cls-2" d="M266.05,139.57l-.11.45a1.77,1.77,0,0,1,1.16-.69c.71-.08,1,.35.83,1.17l-.5,2.05-.59.07.48-1.92c.15-.61-.05-.91-.55-.84A1.33,1.33,0,0,0,265.7,141l-.46,1.84-.58.07.82-3.25Z"/><path class="cls-2" d="M233.67,185.06l1.35-5-.41,0,.12-.48.84-.07L234.1,185Z"/><path class="cls-2" d="M235.56,183.55a.72.72,0,0,0,.84.94,1.56,1.56,0,0,0,1.35-1.18c.18-.69-.15-1.19-.71-1.14a.53.53,0,0,0-.19,0l.1-.37.15,0a1.66,1.66,0,0,0,1.32-1.21c.16-.61-.15-1-.67-1a1.65,1.65,0,0,0-1.22,1h-.34a2.18,2.18,0,0,1,1.68-1.45c.76-.06,1.18.54,1,1.36a2.22,2.22,0,0,1-1.11,1.37c.43.12.66.62.47,1.33a2.2,2.2,0,0,1-1.9,1.68,1,1,0,0,1-1.14-1.29Z"/><path class="cls-2" d="M239.6,181.19l.33-1.28.42,0-.34,1.28.76-.07-.09.36-.76.07-.57,2.18c-.1.38,0,.58.22.56a.63.63,0,0,0,.31-.12l.09.3a1.15,1.15,0,0,1-.6.25c-.45,0-.61-.3-.45-.93l.58-2.21-.3,0,.09-.36Z"/><path class="cls-2" d="M242.33,178.68l-.74,2.8a1.72,1.72,0,0,1,1.18-.67c.7-.06,1,.42.77,1.31l-.56,2.16-.42,0,.54-2.06c.19-.72,0-1.09-.56-1a1.34,1.34,0,0,0-1.13,1l-.59,2.26-.42,0,1.51-5.78Z"/><path class="cls-2" d="M245.36,184.08l1.44-5.57,2.49-.23-.11.44-2.06.18-.54,2.13,1.92-.17-.12.44-1.92.16L245.8,184Z"/><path class="cls-2" d="M250.75,180.12c.91-.08,1.39.69,1.15,1.63a.42.42,0,0,1,0,.12l-2.81.24c-.21.82.18,1.36.93,1.3a1.87,1.87,0,0,0,1.27-.74l.27.16a2.41,2.41,0,0,1-1.66,1c-1,.08-1.49-.66-1.22-1.69A2.66,2.66,0,0,1,250.75,180.12Zm-1.6,1.7,2.38-.2c.12-.71-.25-1.2-.88-1.14A1.94,1.94,0,0,0,249.15,181.82Z"/><path class="cls-2" d="M254.08,177.62l-.78,3.11a2.19,2.19,0,0,1,1.51-1c.9-.07,1.36.65,1.1,1.72a2.54,2.54,0,0,1-2,2,1,1,0,0,1-1.08-.74l-.19.74-.42,0,1.47-5.85ZM253,181.73c-.21.84.15,1.4.86,1.34a2,2,0,0,0,1.58-1.55c.2-.84-.16-1.39-.86-1.33A2,2,0,0,0,253,181.73Z"/><path class="cls-2" d="M257.13,179.67l.42,0-.14.58a1.45,1.45,0,0,1,1.1-.77,1,1,0,0,1,.5.07l-.27.43a.79.79,0,0,0-.41-.08,1.46,1.46,0,0,0-1.12,1.15l-.52,2.12-.43,0Z"/><path class="cls-2" d="M258.85,181.43l.48-2,.43,0-.46,1.87c-.23.95-.07,1.32.56,1.27s1-.47,1.23-1.42l.46-1.88.43,0-.48,1.95c-.27,1.14-.83,1.71-1.74,1.78S258.57,182.56,258.85,181.43Z"/><path class="cls-2" d="M262.3,180.94a2.56,2.56,0,0,1,2-2,1,1,0,0,1,1.11.75l.18-.75.44,0-.85,3.53-.44,0,.18-.76a2.17,2.17,0,0,1-1.53,1C262.52,182.75,262,182,262.3,180.94Zm1.34,1.31a2,2,0,0,0,1.59-1.56c.2-.85-.17-1.41-.89-1.35a2,2,0,0,0-1.59,1.56C262.54,181.75,262.91,182.31,263.64,182.25Z"/><path class="cls-2" d="M267.09,178.8l.43,0-.14.59a1.45,1.45,0,0,1,1.12-.78,1,1,0,0,1,.51.07l-.28.43a.81.81,0,0,0-.42-.07,1.46,1.46,0,0,0-1.12,1.16l-.51,2.14-.44,0Z"/><path class="cls-2" d="M269.28,178.61l.58,2.86,1.87-3.07.5-.05-3.47,5.55-.5,0,1.23-1.95-.71-3.34Z"/><path class="cls-2" d="M271.78,181.31a.22.22,0,0,1,.23.31.48.48,0,0,1-.39.37.22.22,0,0,1-.23-.31A.48.48,0,0,1,271.78,181.31Z"/><path class="cls-2" d="M236.06,174.46l1.45-5.41,1.12-.11c.93-.1,1.35.32,1.12,1.21a2,2,0,0,1-1,1.28c.67,0,.94.5.73,1.26a2.11,2.11,0,0,1-1.92,1.62Zm1.9-5-.49,1.83.42,0a1.35,1.35,0,0,0,1.27-1c.15-.59-.12-.88-.79-.81Zm-.64,2.42-.52,1.94.74-.07a1.42,1.42,0,0,0,1.34-1.07c.17-.62-.14-.94-.83-.87Z"/><path class="cls-2" d="M241.28,169.22c.19,0,.3.15.25.37a.59.59,0,0,1-.47.43c-.19,0-.3-.14-.25-.36A.62.62,0,0,1,241.28,169.22Zm-1.57,4.89.89-3.37.57-.06-.9,3.38Z"/><path class="cls-2" d="M242,170.6l.57-.06-.16.6a1.46,1.46,0,0,1,1.09-.79.85.85,0,0,1,.5.09l-.37.56a.79.79,0,0,0-.41-.08,1.48,1.48,0,0,0-1.07,1.2l-.47,1.81-.57,0Z"/><path class="cls-2" d="M244.51,170.36l.33-1.26.57-.06-.33,1.26.73-.07-.13.49-.73.07-.49,1.91c-.09.34,0,.51.2.49a.79.79,0,0,0,.28-.1l.13.41a1.45,1.45,0,0,1-.69.28c-.5,0-.68-.32-.51-1l.51-2-.34,0,.13-.49Z"/><path class="cls-2" d="M247.56,167.82l-.7,2.73a1.77,1.77,0,0,1,1.15-.64c.71-.07,1,.41.8,1.26l-.55,2.14-.58.05.52-2c.16-.64,0-1-.52-.92a1.23,1.23,0,0,0-1,.92l-.56,2.15-.58.06,1.48-5.69Z"/><path class="cls-2" d="M249.34,171.54a2.54,2.54,0,0,1,2-1.95.9.9,0,0,1,1,.62l.75-2.94.58-.06-1.45,5.72-.59.06.17-.64a2.09,2.09,0,0,1-1.4.86C249.52,173.29,249.08,172.58,249.34,171.54Zm1.36,1.09a1.75,1.75,0,0,0,1.39-1.35c.19-.73-.13-1.21-.75-1.15a1.75,1.75,0,0,0-1.39,1.35C249.76,172.21,250.08,172.69,250.7,172.63Z"/><path class="cls-2" d="M253.35,171.16a2.53,2.53,0,0,1,2-2,.91.91,0,0,1,1,.62l.16-.64.58-.05-.85,3.42-.59.06.16-.65a2.09,2.09,0,0,1-1.41.87C253.54,172.91,253.09,172.2,253.35,171.16Zm1.37,1.09a1.74,1.74,0,0,0,1.4-1.36c.18-.73-.13-1.21-.76-1.15a1.74,1.74,0,0,0-1.4,1.36C253.77,171.83,254.1,172.31,254.72,172.25Z"/><path class="cls-2" d="M258.11,169l.5,2.48,1.66-2.69.68-.07-3.5,5.4-.67.06,1.33-2-.67-3.1Z"/><path class="cls-2" d="M355.32,126.2l2.19,4.1.75-4.48.72-.09-.94,5.66-.73.09-2.19-4.11-.77,4.48-.72.08,1-5.64Z"/><path class="cls-2" d="M361.52,127.4c1.17-.15,1.94.5,1.76,1.61a2.74,2.74,0,0,1-2.37,2.14c-1.17.14-1.94-.52-1.75-1.63A2.71,2.71,0,0,1,361.52,127.4Zm-.52,3.16a1.84,1.84,0,0,0,1.56-1.46.92.92,0,0,0-1.13-1.12,1.81,1.81,0,0,0-1.55,1.45C359.75,130.19,360.23,130.65,361,130.56Z"/><path class="cls-2" d="M364.44,127.13l.22-1.31.7-.09-.22,1.32.89-.12-.08.51-.89.12-.32,2c-.06.36.06.53.33.5a.8.8,0,0,0,.32-.13l.23.43a1.82,1.82,0,0,1-.81.32c-.6.07-.89-.29-.78-1l.33-2-.41.06.09-.51Z"/><path class="cls-2" d="M368.47,126.52a1.34,1.34,0,0,1,1.64,1.56c0,.07,0,.11,0,.16l-3.19.39c-.12.75.36,1.2,1.16,1.1a2,2,0,0,0,1.3-.75l.48.2a2.83,2.83,0,0,1-1.9,1.1c-1.19.15-1.92-.56-1.75-1.62A2.74,2.74,0,0,1,368.47,126.52Zm-1.5,1.75,2.48-.32a.87.87,0,0,0-1.07-.94A1.7,1.7,0,0,0,367,128.27Z"/><path class="cls-2" d="M370.89,129a1,1,0,0,0,.89.3.9.9,0,0,0,.84-.66c.05-.36-.31-.47-.79-.59s-1-.27-.93-.88a1.58,1.58,0,0,1,1.44-1.14,1.18,1.18,0,0,1,1.08.33l-.39.34a.86.86,0,0,0-.72-.2.76.76,0,0,0-.73.56c-.05.3.23.39.7.5.67.17,1.15.4,1.06,1a1.63,1.63,0,0,1-1.58,1.24,1.26,1.26,0,0,1-1.32-.48Z"/><path class="cls-4" d="M518,161.92,352.32,175.69c-3.84.32-6.38-2.56-5.72-6.4l4.31-25.11a9.52,9.52,0,0,1,7.86-7.38l160.16-18.93c4.93-.58,8.91,2.3,8.86,6.46l-.39,28.79C527.34,157.54,523.11,161.5,518,161.92Z"/><path class="cls-5" d="M521.48,244.86l-84.16,1.42a3.58,3.58,0,0,1-3.71-4l1.46-16.23a4.6,4.6,0,0,1,4.34-4.06l82.52-3.09a4.14,4.14,0,0,1,4.54,4l-.23,17.47A4.71,4.71,0,0,1,521.48,244.86Z"/><path class="cls-3" d="M464.06,236.47l.49-7.59,2-.06a3.45,3.45,0,0,1,3.76,3.68,4.29,4.29,0,0,1-4.24,3.92Zm1.62-6.6-.36,5.53H466a3.05,3.05,0,0,0,3-2.86,2.45,2.45,0,0,0-2.66-2.68Z"/><path class="cls-3" d="M473.66,231.33a2.25,2.25,0,0,1,2.44,2.35,1.79,1.79,0,0,1,0,.24L472,234a1.38,1.38,0,0,0,1.57,1.47,2,2,0,0,0,1.53-.77l.81.39a3,3,0,0,1-2.45,1.27,2.34,2.34,0,0,1-2.62-2.45A2.87,2.87,0,0,1,473.66,231.33ZM472,233.46l2.95-.08a1.3,1.3,0,0,0-1.41-1.26A1.56,1.56,0,0,0,472,233.46Z"/><path class="cls-3" d="M476.91,236.15l.43-8,1.16,0-.43,8Z"/><path class="cls-3" d="M482,231.09a2.29,2.29,0,0,1,2.5,2.37,1.94,1.94,0,0,1,0,.24l-4.16.11a1.39,1.39,0,0,0,1.6,1.47,2,2,0,0,0,1.54-.77l.83.4a3,3,0,0,1-2.47,1.27,2.4,2.4,0,0,1-2.69-2.46A2.89,2.89,0,0,1,482,231.09Zm-1.62,2.14,3-.08a1.32,1.32,0,0,0-1.44-1.26A1.57,1.57,0,0,0,480.41,233.23Z"/><path class="cls-3" d="M485.74,231.14l.08-1.79,1.18,0-.08,1.79,1.17,0,0,.85-1.18,0-.12,2.45c0,.43.16.66.5.65a.78.78,0,0,0,.41-.12l.43.78a2.33,2.33,0,0,1-1.17.35c-.9,0-1.4-.56-1.35-1.56l.12-2.52-.61,0,0-.85Z"/><path class="cls-3" d="M491.35,230.83a2.34,2.34,0,0,1,2.56,2.38c0,.09,0,.16,0,.24l-4.23.11a1.43,1.43,0,0,0,1.64,1.49,2,2,0,0,0,1.56-.78l.84.4a3,3,0,0,1-2.5,1.28,2.44,2.44,0,0,1-2.74-2.48A2.87,2.87,0,0,1,491.35,230.83ZM489.72,233l3-.08a1.35,1.35,0,0,0-1.47-1.27A1.56,1.56,0,0,0,489.72,233Z"/><path class="cls-6" d="M235.25,251H12.74C5.75,251,0,246.09,0,240.16V71.31c0-4.16,4.76-6.38,10.56-5L205,112.15a10.35,10.35,0,0,1,7.13,7.18l11,49.06,16.8,75C240.83,247.56,238.77,251,235.25,251Z"/><path class="cls-2" d="M51.91,100.7c.4,7.23-6.95,11.75-16.64,10-10-1.85-18.33-9.56-18.46-17.07s7.78-11.54,17.46-9.42C43.71,86.25,51.51,93.58,51.91,100.7Z"/><path class="cls-3" d="M34.58,92.35c3.48.73,6.34,3.45,6.46,6.16s-2.57,4.35-6.09,3.66-6.48-3.47-6.56-6.23S31.07,91.62,34.58,92.35Zm.32,8.43c2.45.48,4.21-.67,4.12-2.68s-2-3.88-4.38-4.38-4.24.63-4.17,2.64S32.44,100.29,34.9,100.78Z"/><path class="cls-2" d="M61.39,96.72l1.28.27,1.78,3.55,1.34-2.89,1.26.26,1,5.17-1.19-.25-.66-3.43-1.27,2.9-.74-.15-1.72-3.53-.21,3.28-1.2-.25Z"/><path class="cls-2" d="M68.2,101.56c-.07-.94.7-1.48,1.83-1.25a2.65,2.65,0,0,1,1.42.82l0-.43,1.11.23.24,3.11-1.11-.23,0-.44a1.51,1.51,0,0,1-1.35.25A2.5,2.5,0,0,1,68.2,101.56Zm2.35,1.37c.63.13,1.06-.15,1-.67a1.39,1.39,0,0,0-1.16-1.13c-.63-.13-1.07.16-1,.68A1.38,1.38,0,0,0,70.55,102.93Z"/><path class="cls-2" d="M74,101.24l1.24,2.14.86-1.71.75.16L78,104l.92-1.68,1.24.25-1.73,2.68-.74-.15-1.13-2-.83,1.65L75,104.5,72.75,101Z"/><path class="cls-2" d="M80.53,104.21l-.14-1.65,1.08.23.13,1.43c.06.72.33,1.07.93,1.2s.81-.14.75-.85l-.13-1.43,1.07.22.15,1.64c.09,1-.47,1.4-1.78,1.13S80.62,105.23,80.53,104.21Z"/><path class="cls-2" d="M85.31,106.59l-.47-5.13,1.07.22.48,5.13Z"/><path class="cls-2" d="M87.35,102.38A.83.83,0,0,1,88,103c0,.28-.23.45-.58.38a.83.83,0,0,1-.68-.65C86.74,102.48,87,102.31,87.35,102.38ZM87.26,107,87,103.93l1.06.22.29,3.06Z"/><path class="cls-2" d="M93.35,103.37a4.06,4.06,0,0,1,3.22,3.14c.14,1.4-1.06,2.25-2.71,1.92a4.07,4.07,0,0,1-3.25-3.16C90.48,103.86,91.7,103,93.35,103.37Zm.42,4.18c1,.21,1.72-.33,1.62-1.29a2.45,2.45,0,0,0-2-2c-1-.22-1.72.32-1.63,1.28A2.44,2.44,0,0,0,93.77,107.55Z"/><path class="cls-2" d="M97.46,108.22a2.09,2.09,0,0,0,.94.51c.29.06.51,0,.49-.22s-.28-.35-.7-.56-1.13-.58-1.19-1.13.47-.79,1.31-.62a3,3,0,0,1,1.24.59l-.32.38a1.79,1.79,0,0,0-.79-.37c-.32-.07-.48,0-.46.18s.27.33.75.56c.72.36,1.18.72,1.24,1.22s-.48.81-1.4.63a2.91,2.91,0,0,1-1.51-.79Z"/><path class="cls-2" d="M102.09,107a2.48,2.48,0,0,1,2,1.91,1,1,0,0,1,0,.17l-2.79-.57a1.29,1.29,0,0,0,1.12,1,1,1,0,0,0,.9-.2l.77.46a1.55,1.55,0,0,1-1.65.41,2.65,2.65,0,0,1-2.21-2C100.17,107.26,101,106.75,102.09,107Zm-.77,1.08,1.78.37a1.23,1.23,0,0,0-1-.86C101.64,107.48,101.31,107.68,101.32,108.07Z"/><path class="cls-2" d="M104.84,106.06a.84.84,0,0,1,.66.63c0,.28-.22.45-.55.38a.85.85,0,0,1-.66-.63C104.26,106.16,104.51,106,104.84,106.06Zm0,4.52-.33-3,1,.21.33,3Z"/><path class="cls-2" d="M63.07,105.89a2,2,0,0,1,1.59,1.79,1.06,1.06,0,0,1-1.39,1.22,2,2,0,0,1-1.59-1.8A1.06,1.06,0,0,1,63.07,105.89Zm.19,2.77c.69.14,1.11-.28,1.06-1a1.57,1.57,0,0,0-1.23-1.49c-.69-.14-1.12.27-1.07,1A1.57,1.57,0,0,0,63.26,108.66Z"/><path class="cls-2" d="M65.37,108.58a1.44,1.44,0,0,0,1,.71c.59.12,1-.09.93-.55a1.32,1.32,0,0,0-1.16-1,1.26,1.26,0,0,0-1,.16l.19-1.46,1.85.37,0,.22-1.58-.31-.12.91a1.14,1.14,0,0,1,.72,0,1.5,1.5,0,0,1,1.33,1.24c0,.64-.52.86-1.21.72a1.84,1.84,0,0,1-1.32-.88Z"/><path class="cls-2" d="M68.24,109.14a1.44,1.44,0,0,0,1.05.71c.58.12.95-.09.91-.55a1.27,1.27,0,0,0-1.15-1,1.21,1.21,0,0,0-.93.15L68.3,107l1.83.36,0,.22-1.57-.31-.11.91a1.18,1.18,0,0,1,.71,0,1.52,1.52,0,0,1,1.33,1.24c0,.64-.52.85-1.21.72a1.87,1.87,0,0,1-1.31-.88Z"/><path class="cls-2" d="M72.47,110.63,72.26,108,72,108l0-.25.62.12.22,2.87Z"/><path class="cls-2" d="M73.43,110.7c1.58-.73,2-1,2-1.44a1.11,1.11,0,0,0-.92-.87c-.46-.09-.81.12-.83.5l-.29-.1c0-.49.49-.76,1.12-.64a1.52,1.52,0,0,1,1.26,1.17c0,.46-.32.76-1.66,1.38l1.86.37,0,.24-2.51-.49Z"/><path class="cls-2" d="M76.6,110.73a1,1,0,0,0,.86.69c.46.09.74-.08.72-.41a1,1,0,0,0-.8-.78h-.14V110l.11,0c.42.08.71-.12.69-.44a.91.91,0,0,0-.73-.69c-.36-.07-.64.09-.66.36l-.26-.08c0-.39.4-.59.9-.49a1.24,1.24,0,0,1,1,1,.52.52,0,0,1-.49.57,1.07,1.07,0,0,1,.67.84c0,.46-.35.72-1,.59a1.35,1.35,0,0,1-1.16-1Z"/><path class="cls-2" d="M80.14,111.47a1.42,1.42,0,0,0,1,.7c.56.1.91-.1.87-.55a1.28,1.28,0,0,0-1.12-1,1.13,1.13,0,0,0-.9.16l.15-1.44,1.77.35,0,.22-1.51-.3-.1.9a1.12,1.12,0,0,1,.69,0,1.5,1.5,0,0,1,1.3,1.22c0,.63-.49.84-1.15.71a1.81,1.81,0,0,1-1.28-.86Z"/><path class="cls-2" d="M82.67,111.73A.9.9,0,0,1,83,111l1.06-.9.37.07-1,.83a1.18,1.18,0,0,1,.46,0,1.48,1.48,0,0,1,1.22,1.19c0,.57-.42.87-1.13.73A1.53,1.53,0,0,1,82.67,111.73Zm.31.06a1.16,1.16,0,0,0,1,.92c.54.1.9-.14.86-.57a1.18,1.18,0,0,0-1-.94C83.33,111.1,82.94,111.36,83,111.79Z"/><path class="cls-2" d="M85.22,112.57v-.11l1.51-1.83.3.06.19,2.06.4.08,0,.21-.4-.07,0,.54-.29-.05,0-.55Zm.38-.14,1.32.26L86.77,111Z"/><path class="cls-2" d="M87.77,112.73a.88.88,0,0,1,.3-.73l1-.89.37.07-1,.83a1,1,0,0,1,.46,0,1.49,1.49,0,0,1,1.21,1.19c0,.56-.41.86-1.11.72A1.53,1.53,0,0,1,87.77,112.73Zm.31.06a1.15,1.15,0,0,0,1,.91c.53.1.88-.14.84-.57a1.18,1.18,0,0,0-1-.93C88.42,112.1,88,112.36,88.08,112.79Z"/><path class="cls-2" d="M18.94,126.77,19,129a1.25,1.25,0,0,1,1.17-.26c.81.13,1.31.6,1.32,1.29l0,1.68-.48-.08,0-1.6a1,1,0,0,0-1-1c-.65-.1-1,.18-1,.55l0,1.76-.48-.07-.09-4.51Z"/><path class="cls-2" d="M24.07,129.31A2,2,0,0,1,25.89,131a.14.14,0,0,1,0,.09l-3.14-.49a1.56,1.56,0,0,0,1.47,1.3,1.38,1.38,0,0,0,1.22-.3l.36.2a1.77,1.77,0,0,1-1.6.41,2.07,2.07,0,0,1-1.93-1.71C22.25,129.64,23.07,129.15,24.07,129.31Zm-1.31,1,2.67.42a1.57,1.57,0,0,0-1.36-1.17C23.37,129.47,22.81,129.79,22.76,130.33Z"/><path class="cls-2" d="M26.74,132.46,26.62,128l.47.07.12,4.47Z"/><path class="cls-2" d="M28.31,132.71l-.13-4.46.46.07.14,4.46Z"/><path class="cls-2" d="M31.39,130.46a2.07,2.07,0,0,1,1.92,1.7c0,.84-.76,1.28-1.83,1.12a2.07,2.07,0,0,1-1.93-1.7C29.53,130.74,30.33,130.3,31.39,130.46Zm.08,2.5c.81.12,1.39-.24,1.36-.87a1.53,1.53,0,0,0-1.43-1.3c-.8-.13-1.38.23-1.36.86A1.56,1.56,0,0,0,31.47,133Z"/><path class="cls-2" d="M36.62,130.59c1.38.21,2.74,1.16,2.8,2.52,0,.58-.25,1.07-.84,1a1.06,1.06,0,0,1-.71-.44,1.22,1.22,0,0,1-1.28.43A1.74,1.74,0,0,1,35,132.56c0-.75.62-1.19,1.49-1.05a1.91,1.91,0,0,1,1.32.82l0-.54.33.06.06,1.49a.5.5,0,0,0,.43.51c.31.05.5-.24.48-.75a2.64,2.64,0,0,0-2.43-2.23c-1.38-.21-2.4.46-2.36,1.54a2.7,2.7,0,0,0,2.46,2.27,2,2,0,0,0,1.72-.37l.34.21a2.4,2.4,0,0,1-2.06.47,3.15,3.15,0,0,1-2.87-2.63C33.84,131.09,35.05,130.34,36.62,130.59Zm-1.26,2a1.41,1.41,0,0,0,1.28,1.23c.73.11,1.23-.24,1.21-.84a1.42,1.42,0,0,0-1.28-1.23C35.85,131.66,35.34,132,35.36,132.61Z"/><path class="cls-2" d="M40.17,131.93l.46.08,0,.42a1,1,0,0,1,1-.34,1.38,1.38,0,0,1,1.11.76,1,1,0,0,1,1.1-.41,1.28,1.28,0,0,1,1.19,1.15l.08,1.72-.45-.07-.07-1.62a1,1,0,0,0-.86-.91c-.52-.08-.91.18-.89.69L43,135l-.45-.07-.07-1.66a.94.94,0,0,0-.86-.87c-.52-.08-.92.17-.9.68l.07,1.58-.46-.07Z"/><path class="cls-2" d="M45.87,134.12c0-.79.62-1.27,1.56-1.12a2,2,0,0,1,1.38.85l0-.56.44.07.13,2.6-.44-.07,0-.56a1.3,1.3,0,0,1-1.32.43A1.89,1.89,0,0,1,45.87,134.12Zm1.78,1.35c.74.11,1.25-.25,1.22-.88a1.48,1.48,0,0,0-1.32-1.27c-.74-.11-1.25.25-1.22.88A1.47,1.47,0,0,0,47.65,135.47Z"/><path class="cls-2" d="M50.13,133.51l1.3,2.26.91-1.91.29,0,1.14,2.23,1.06-1.88.5.08-1.4,2.34-.3,0-1.11-2.19-.9,1.88-.3-.05-1.7-2.83Z"/><path class="cls-2" d="M55.79,135.82l-.09-1.43.44.07.08,1.37a1,1,0,0,0,1,1.12c.63.1.88-.14.84-.84l-.09-1.37.43.07.09,1.43c0,.82-.35,1.15-1.26,1A1.42,1.42,0,0,1,55.79,135.82Z"/><path class="cls-2" d="M59.48,137.52l-.26-4.3.43.07.26,4.3Z"/><path class="cls-2" d="M60.93,134.25a.35.35,0,0,1,.29.27c0,.13-.11.22-.26.19a.33.33,0,0,1-.3-.28C60.65,134.31,60.77,134.23,60.93,134.25Zm0,3.5-.16-2.56.43.07.16,2.55Z"/><path class="cls-2" d="M63.69,135.57a2,2,0,0,1,1.81,1.62c0,.8-.66,1.24-1.63,1.09a2,2,0,0,1-1.82-1.63C62,135.85,62.71,135.42,63.69,135.57Zm.16,2.4c.73.11,1.25-.24,1.21-.85a1.51,1.51,0,0,0-1.35-1.24c-.74-.12-1.26.23-1.22.84A1.5,1.5,0,0,0,63.85,138Z"/><path class="cls-2" d="M66.2,138a1.36,1.36,0,0,0,.89.51c.39.06.7,0,.68-.37s-.38-.49-.86-.71-.9-.42-.92-.84.35-.6.94-.51a1.54,1.54,0,0,1,.94.52l-.22.11a1.15,1.15,0,0,0-.68-.37c-.38-.06-.6.07-.58.31s.29.38.72.57c.59.28,1,.55,1.08,1s-.39.67-1,.57A1.75,1.75,0,0,1,66,138.1Z"/><path class="cls-2" d="M70.13,136.59a2,2,0,0,1,1.68,1.54v.08L69,137.78A1.48,1.48,0,0,0,70.38,139a1.13,1.13,0,0,0,1.06-.3l.32.19a1.44,1.44,0,0,1-1.38.4,2,2,0,0,1-1.77-1.6C68.55,136.92,69.24,136.45,70.13,136.59Zm-1.1,1,2.36.37a1.51,1.51,0,0,0-1.25-1.09C69.52,136.75,69.05,137.06,69,137.57Z"/><path class="cls-2" d="M72.58,136.11a.33.33,0,0,1,.29.27c0,.12-.1.21-.25.18a.35.35,0,0,1-.3-.27C72.32,136.16,72.43,136.08,72.58,136.11Zm.06,3.45L72.45,137l.41.07.19,2.52Z"/><path class="cls-2" d="M74.11,139.38a.36.36,0,0,1,.31.29c0,.13-.11.22-.27.2a.39.39,0,0,1-.32-.29C73.82,139.44,74,139.35,74.11,139.38Z"/><path class="cls-2" d="M74.87,138.66c-.06-.76.6-1.23,1.53-1.08a2.42,2.42,0,0,1,1,.44l-.18.19a1.73,1.73,0,0,0-.8-.33c-.75-.12-1.22.25-1.18.84A1.49,1.49,0,0,0,76.64,140a1.25,1.25,0,0,0,.76-.08l.22.25a1.71,1.71,0,0,1-1,.12A2,2,0,0,1,74.87,138.66Z"/><path class="cls-2" d="M79.57,138.08a2,2,0,0,1,1.75,1.58c.07.79-.6,1.22-1.53,1.08A2,2,0,0,1,78,139.15C78,138.36,78.64,137.93,79.57,138.08Zm.19,2.35c.71.11,1.19-.24,1.14-.83a1.48,1.48,0,0,0-1.31-1.22c-.7-.11-1.19.24-1.14.84A1.47,1.47,0,0,0,79.76,140.43Z"/><path class="cls-2" d="M81.92,138.53l.4.06,0,.4a.83.83,0,0,1,.89-.33,1.29,1.29,0,0,1,1,.72.84.84,0,0,1,1-.41,1.25,1.25,0,0,1,1.11,1.09l.14,1.63-.4-.06-.14-1.53a.91.91,0,0,0-.8-.86.58.58,0,0,0-.75.65l.13,1.5-.41-.06L84,139.75a.9.9,0,0,0-.8-.82.58.58,0,0,0-.76.65l.13,1.51-.41-.07Z"/><path class="cls-2" d="M18.38,122.84l-.09-4.25,2.91.5v.46L19,119.17l0,1.42,2.14.36v.46L19,121.06l0,1.43,2.22.37v.46Z"/><path class="cls-2" d="M22.08,120.83l.65.11v.4a1.15,1.15,0,0,1,1.1-.29,1.58,1.58,0,0,1,1.18.73,1.25,1.25,0,0,1,1.2-.33,1.36,1.36,0,0,1,1.29,1.18l0,1.73-.65-.11-.05-1.59a.9.9,0,0,0-.83-.84c-.52-.09-.9.13-.89.61l0,1.54-.65-.11,0-1.63a.88.88,0,0,0-.83-.81c-.51-.09-.91.13-.9.61l0,1.54-.66-.11Z"/><path class="cls-2" d="M28.24,123.17c0-.79.67-1.27,1.64-1.1a2.1,2.1,0,0,1,1.35.79l0-.49.64.11.08,2.6-.64-.1v-.49a1.41,1.41,0,0,1-1.31.35A1.92,1.92,0,0,1,28.24,123.17Zm1.89,1.27c.69.11,1.16-.21,1.15-.76a1.35,1.35,0,0,0-1.22-1.16c-.68-.11-1.17.2-1.15.76A1.34,1.34,0,0,0,30.13,124.44Z"/><path class="cls-2" d="M33.08,121.55c.22,0,.41.21.41.38s-.17.27-.39.24a.48.48,0,0,1-.41-.38C32.69,121.62,32.86,121.51,33.08,121.55Zm-.19,3.69-.09-2.6.64.11.09,2.6Z"/><path class="cls-2" d="M34.49,125.51l-.16-4.36.63.11.16,4.35Z"/><path class="cls-2" d="M121.22,145l0-.22.68.11,0-1,.25,0,0,.94,1,.17,0-.95.25,0,0,1,.48.07,0,.22-.51-.08,0,.94.66.1,0,.22-.69-.11,0,.95-.24,0,0-.95-1-.16,0,.95-.25,0,0-1-.48-.07,0-.22.51.08,0-.94Zm.87,1.08,1,.16,0-.93-1-.17Z"/><path class="cls-2" d="M124.4,145.48l0-.25.26.05-.11-.86c-.07-.54.17-.77.59-.7a1,1,0,0,1,.59.32l-.17.16a.5.5,0,0,0-.33-.18c-.24,0-.37.1-.33.44l.12.87.67.11,0,.24-.67-.1.27,2.11-.36-.05-.27-2.12Z"/><path class="cls-2" d="M126,145.5l.35.05,0,.39a.58.58,0,0,1,.71-.34,1.4,1.4,0,0,1,.45.15l-.11.25a1.26,1.26,0,0,0-.37-.13.51.51,0,0,0-.61.61l.19,1.43-.36-.06Z"/><path class="cls-2" d="M128,144.93a.31.31,0,0,1,.26.25c0,.11-.07.19-.2.17a.31.31,0,0,1-.26-.25C127.75,145,127.84,144.91,128,144.93Zm.25,3.22-.31-2.36.36.06.31,2.35Z"/><path class="cls-2" d="M130.25,146.09a1.83,1.83,0,0,1,1.49,1.4s0,.06,0,.08l-2.34-.36a1.38,1.38,0,0,0,1.2,1.11.82.82,0,0,0,.86-.29l.28.17a1.06,1.06,0,0,1-1.12.39,1.84,1.84,0,0,1-1.57-1.46C129,146.42,129.5,146,130.25,146.09Zm-.85.93,2,.31a1.39,1.39,0,0,0-1.1-1C129.75,146.25,129.38,146.54,129.4,147Z"/><path class="cls-2" d="M132.54,146.52l.05.38a.7.7,0,0,1,.81-.31,1.24,1.24,0,0,1,1.07,1.1l.2,1.45-.35,0-.19-1.4a.94.94,0,0,0-.81-.86c-.48-.07-.71.2-.65.67l.19,1.36-.35-.05-.32-2.34Z"/><path class="cls-2" d="M135.11,148.07a.87.87,0,0,1,1.09-1,1.65,1.65,0,0,1,1.12.74L137,145.7l.35.05.54,3.89-.34,0-.07-.5a.85.85,0,0,1-1,.41A1.74,1.74,0,0,1,135.11,148.07Zm1.47,1.17a.67.67,0,0,0,.85-.81,1.34,1.34,0,0,0-1.11-1.11.68.68,0,0,0-.86.8A1.36,1.36,0,0,0,136.58,149.24Z"/><path class="cls-2" d="M138.55,149.59c0-.12.08-.21.22-.18a.36.36,0,0,1,.29.31.65.65,0,0,1-.29.59l-.09-.09a.55.55,0,0,0,.1-.38A.34.34,0,0,1,138.55,149.59Z"/><path class="cls-2" d="M140.42,148l0-.22.65.1v-.92l.23,0v.92l1,.15v-.92l.23,0v.92l.45.07,0,.22-.48-.08v.91l.62.1,0,.21-.64-.1v.93l-.23,0v-.92l-1-.16v.93l-.23,0v-.93l-.45-.07,0-.22.48.08v-.92Zm.85,1,1,.16v-.92l-1-.15Z"/><path class="cls-2" d="M143.7,146.77l.31,2a.81.81,0,0,1,.94-.4,1.71,1.71,0,0,1,1.4,1.4.84.84,0,0,1-1,1,1.67,1.67,0,0,1-1.11-.73l.07.49-.34-.05-.56-3.86Zm.39,2.7a1.34,1.34,0,0,0,1.1,1.1.66.66,0,0,0,.82-.8,1.34,1.34,0,0,0-1.1-1.09A.65.65,0,0,0,144.09,149.47Z"/><path class="cls-2" d="M147.88,148.88a1.79,1.79,0,0,1,1.44,1.36.22.22,0,0,0,0,.08l-2.22-.35a1.39,1.39,0,0,0,1.16,1.09.76.76,0,0,0,.8-.29l.27.16a1,1,0,0,1-1.05.39,1.82,1.82,0,0,1-1.52-1.42A.88.88,0,0,1,147.88,148.88Zm-.78.91,1.87.29a1.37,1.37,0,0,0-1.06-1A.64.64,0,0,0,147.1,149.79Z"/><path class="cls-2" d="M149.94,151a1.12,1.12,0,0,0,.72.44c.3.05.54-.05.49-.34s-.33-.43-.72-.62-.73-.36-.78-.74.22-.54.68-.47a1.22,1.22,0,0,1,.77.45l-.16.1a.87.87,0,0,0-.55-.32c-.3-.05-.46.07-.43.28s.26.35.6.51c.49.23.86.47.93.88s-.25.6-.76.52a1.37,1.37,0,0,1-1-.59Z"/><path class="cls-2" d="M151.77,149.56l-.13-.84.33.05.13.85.6.09,0,.24-.6-.1.22,1.44c0,.26.17.41.36.44a.38.38,0,0,0,.22,0l.17.23a.65.65,0,0,1-.42.07.82.82,0,0,1-.66-.74l-.22-1.46-.24,0,0-.24Z"/><path class="cls-2" d="M153.17,148.94a.32.32,0,0,1,.25.24.14.14,0,0,1-.18.17.3.3,0,0,1-.25-.24A.14.14,0,0,1,153.17,148.94Zm.33,3.11-.36-2.27.33.05.36,2.27Z"/><path class="cls-2" d="M155.3,150.05a1.78,1.78,0,0,1,1.42,1.35s0,0,0,.07l-2.16-.33a1.34,1.34,0,0,0,1.13,1.07.75.75,0,0,0,.79-.29l.26.16a.93.93,0,0,1-1,.38,1.77,1.77,0,0,1-1.49-1.39A.85.85,0,0,1,155.3,150.05Zm-.75.9,1.83.29a1.31,1.31,0,0,0-1-1A.61.61,0,0,0,154.55,151Z"/><path class="cls-2" d="M157.3,152.49c0-.12.07-.2.2-.18a.34.34,0,0,1,.28.31.61.61,0,0,1-.25.57l-.1-.08a.51.51,0,0,0,.09-.38A.32.32,0,0,1,157.3,152.49Z"/><path class="cls-2" d="M159,150.91l0-.21.61.1,0-.91.22,0,0,.9.92.15,0-.9.22,0,0,.9.42.07,0,.21-.46-.07,0,.88.59.09,0,.21-.61-.09,0,.9-.21,0,0-.9-.92-.15,0,.91-.22,0,0-.9-.42-.07,0-.21.46.07,0-.89Zm.81,1,.93.15,0-.89-.92-.14Z"/><path class="cls-2" d="M161.86,151.38l0-.23.23,0-.13-.81c-.09-.52.12-.74.49-.68a.88.88,0,0,1,.53.3l-.14.16a.51.51,0,0,0-.3-.18c-.21,0-.32.11-.27.43l.14.83.6.09,0,.24-.6-.1.33,2-.32,0-.33-2Z"/><path class="cls-2" d="M163.33,152.48a.79.79,0,0,1,.95-1,1.65,1.65,0,0,1,1.06.7l-.08-.48.31.05L166,154l-.32,0-.08-.49a.76.76,0,0,1-.87.41A1.71,1.71,0,0,1,163.33,152.48Zm1.38,1.11c.53.08.84-.24.75-.78a1.3,1.3,0,0,0-1.06-1.06c-.52-.08-.83.24-.75.78A1.31,1.31,0,0,0,164.71,153.59Z"/><path class="cls-2" d="M166.23,151.85l1.15,1.92.54-1.66.37.06-.73,2.05-.21,0-1.49-2.4Z"/><path class="cls-2" d="M119.87,136.34l-.05-.42,3,.51,0,.41-1.21-.2L122,140l-.53-.08-.41-3.34Z"/><path class="cls-2" d="M122.89,139a.87.87,0,0,1,1.13-1,1.75,1.75,0,0,1,1.09.67l-.06-.43.49.08.31,2.32-.5-.08,0-.43a.92.92,0,0,1-1,.34A1.77,1.77,0,0,1,122.89,139Zm1.53,1.09c.53.09.87-.2.8-.7a1.21,1.21,0,0,0-1-1c-.53-.09-.87.2-.81.7A1.22,1.22,0,0,0,124.42,140.06Z"/><path class="cls-2" d="M127.4,138.53a1.69,1.69,0,0,1,1.08.67l-.06-.43.49.08.31,2.37c.1.75-.35,1.1-1.26.95a1.92,1.92,0,0,1-1.44-.9l.38-.1a1.5,1.5,0,0,0,1,.62c.54.09.89-.15.83-.65l-.07-.49a.88.88,0,0,1-.94.33,1.78,1.78,0,0,1-1.45-1.44A.87.87,0,0,1,127.4,138.53Zm.41,2.1c.52.08.85-.21.78-.7a1.19,1.19,0,0,0-1-1c-.52-.09-.85.2-.79.69A1.23,1.23,0,0,0,127.81,140.63Z"/><path class="cls-2" d="M130,140.76a1.2,1.2,0,0,0,.69.38c.28.05.5,0,.46-.28s-.3-.38-.67-.55-.78-.39-.83-.78.27-.58.79-.49a1.47,1.47,0,0,1,.83.44l-.21.15a1,1,0,0,0-.54-.28c-.28,0-.44.05-.41.23s.24.32.59.49c.51.24.9.49.95.89s-.28.62-.87.53a1.68,1.68,0,0,1-1-.59Z"/><path class="cls-2" d="M19.05,155.1,19,150.55l.52.07,3.19,4.24L22.59,151l.5.07.11,4.52-.51-.06-3.2-4.24.08,3.85Z"/><path class="cls-2" d="M25.88,153.06a2,2,0,0,1,1.87,1.66v.1l-3.21-.41a1.54,1.54,0,0,0,1.5,1.32,1.4,1.4,0,0,0,1.25-.36l.36.2a1.79,1.79,0,0,1-1.63.48,2.05,2.05,0,0,1-2-1.72C24,153.47,24.86,152.93,25.88,153.06Zm-1.33,1.12,2.72.35a1.56,1.56,0,0,0-1.39-1.18C25.17,153.26,24.6,153.62,24.55,154.18Z"/><path class="cls-2" d="M28.41,153.47l1.35,2.4,1-2.09.32,0,1.17,2.37,1.21-2.07.54.07-1.58,2.57-.32,0L31,154.39l-1,2.06-.33,0-1.77-3Z"/><path class="cls-2" d="M34.73,152.6l.59.08L37,155l1.47-1.89.59.07-1.8,2.28.08,1.93-.49-.07-.08-1.93Z"/><path class="cls-2" d="M40.44,154.92a2,2,0,0,1,1.94,1.7c0,.86-.76,1.36-1.82,1.23a2,2,0,0,1-2-1.71C38.58,155.28,39.38,154.78,40.44,154.92Zm.11,2.59c.8.1,1.38-.3,1.35-.95a1.52,1.52,0,0,0-1.45-1.3c-.8-.11-1.38.29-1.35,1A1.52,1.52,0,0,0,40.55,157.51Z"/><path class="cls-2" d="M43.11,155.35l.47.06,0,.45a.85.85,0,0,1,1-.41,1.82,1.82,0,0,1,.57.16l-.17.3a1.61,1.61,0,0,0-.47-.15.72.72,0,0,0-.88.73l.08,1.66-.47-.06Z"/><path class="cls-2" d="M45.9,153.86l.14,3,1.29-1,.59.08-1.45,1.09,1.67,1.65-.59-.07-1.5-1.49.07,1.31-.47-.06-.21-4.59Z"/><path class="cls-2" d="M48.19,158.52c0-.14.13-.24.32-.22a.4.4,0,0,1,.35.37.86.86,0,0,1-.46.7l-.12-.1a.69.69,0,0,0,.19-.46A.35.35,0,0,1,48.19,158.52Z"/><path class="cls-2" d="M51.15,157.51l-.14-2.8.47.06.14,2.72A1.46,1.46,0,0,0,53.05,159c.91.11,1.34-.28,1.29-1.18l-.15-2.71.46.06.16,2.79c.06,1.08-.53,1.57-1.74,1.42A1.91,1.91,0,0,1,51.15,157.51Z"/><path class="cls-2" d="M55.8,158.7a2.22,2.22,0,0,0,1.48.86c.61.08,1.15-.15,1.11-.71s-.38-.76-1.37-1.18-1.35-.81-1.38-1.33.55-1,1.41-.93a2.05,2.05,0,0,1,1.36.75l-.28.16a1.69,1.69,0,0,0-1.07-.56c-.65-.08-1,.24-1,.64s.37.68,1.14,1c1.1.46,1.61.86,1.65,1.5s-.67,1.13-1.56,1a2.58,2.58,0,0,1-1.84-1.08Z"/><path class="cls-2" d="M59.83,159.71a.37.37,0,0,1,.33.3c0,.14-.13.24-.3.22a.36.36,0,0,1-.33-.3A.24.24,0,0,1,59.83,159.71Z"/><path class="cls-2" d="M18.83,146.32l-.09-4.47.71.1.08,4,2.3.31v.48Z"/><path class="cls-2" d="M24.09,144.19a2.11,2.11,0,0,1,2,1.74c0,.86-.82,1.35-1.94,1.19a2.1,2.1,0,0,1-2-1.74C22.11,144.52,23,144,24.09,144.19Zm.06,2.47c.74.11,1.28-.24,1.26-.83a1.39,1.39,0,0,0-1.31-1.18c-.74-.1-1.28.24-1.27.83A1.38,1.38,0,0,0,24.15,146.66Z"/><path class="cls-2" d="M26.61,146c0-.82.79-1.35,1.87-1.2a2.73,2.73,0,0,1,1.18.46l-.29.28a1.83,1.83,0,0,0-.79-.29c-.79-.11-1.29.28-1.28.84a1.4,1.4,0,0,0,1.34,1.2,1.45,1.45,0,0,0,.79-.07l.3.36a2.13,2.13,0,0,1-1.17.14A2.09,2.09,0,0,1,26.61,146Z"/><path class="cls-2" d="M30.17,146.48c0-.83.68-1.35,1.67-1.21a2.05,2.05,0,0,1,1.38.78l0-.51.65.09.1,2.73-.66-.09v-.51a1.44,1.44,0,0,1-1.34.41A1.91,1.91,0,0,1,30.17,146.48Zm1.93,1.27c.7.09,1.19-.26,1.17-.84A1.32,1.32,0,0,0,32,145.74c-.7-.1-1.19.25-1.17.84A1.33,1.33,0,0,0,32.1,147.75Z"/><path class="cls-2" d="M34.92,145.78l0-1,.65.09,0,1,.82.11v.4l-.82-.12.06,1.54a.44.44,0,0,0,.4.47.7.7,0,0,0,.29,0l.29.39a1.33,1.33,0,0,1-.71.08,1,1,0,0,1-.92-1l-.06-1.57-.38,0v-.39Z"/><path class="cls-2" d="M37.29,144.92a.45.45,0,0,1,.41.38c0,.17-.17.29-.39.26a.45.45,0,0,1-.41-.38C36.89,145,37.07,144.89,37.29,144.92Zm-.17,3.87L37,146.07l.65.09.1,2.71Z"/><path class="cls-2" d="M40.27,146.44a2.06,2.06,0,0,1,1.95,1.69c0,.85-.76,1.33-1.83,1.18a2.06,2.06,0,0,1-2-1.7C38.39,146.76,39.19,146.29,40.27,146.44Zm.1,2.42c.71.1,1.22-.24,1.19-.82a1.35,1.35,0,0,0-1.27-1.15c-.71-.1-1.22.24-1.2.81A1.35,1.35,0,0,0,40.37,148.86Z"/><path class="cls-2" d="M43.53,147v.38a1.15,1.15,0,0,1,1.1-.31A1.37,1.37,0,0,1,46,148.3L46,150l-.63-.08-.07-1.59a.94.94,0,0,0-.89-.9c-.57-.07-.89.18-.86.72l.07,1.53-.64-.09-.12-2.69Z"/><path class="cls-2" d="M20.06,180.78,20,176.42l-.5,0V176l1,.1.09,4.78Z"/><path class="cls-2" d="M21.47,180.91l2.86-4.12-2.91-.28v-.37l3.67.36v.14l-3,4.33Z"/><path class="cls-2" d="M25.59,178.34l0-1.1.49,0,0,1.1.91.08v.31l-.91-.08,0,1.86a.5.5,0,0,0,.47.55.59.59,0,0,0,.33-.05l.22.29a1.15,1.15,0,0,1-.65.11.88.88,0,0,1-.87-.92l0-1.89-.36,0v-.3Z"/><path class="cls-2" d="M28.07,176.59l.07,2.39a1.32,1.32,0,0,1,1.2-.38,1.34,1.34,0,0,1,1.37,1.32l.06,1.84-.49,0L30.22,180a1,1,0,0,0-1-1c-.67-.07-1.05.27-1,.68l.05,1.92-.5,0-.13-4.94Z"/><path class="cls-2" d="M32.66,181.52l.27-.25a1.74,1.74,0,0,0,1.06.47c.79.07,1.24-.3,1.21-1l-.11-3.24.5.05.12,3.36c0,.89-.58,1.36-1.66,1.26A2.2,2.2,0,0,1,32.66,181.52Z"/><path class="cls-2" d="M36.75,181l-.06-1.62.48.05.06,1.55c0,.79.33,1.14,1,1.2s1-.23.95-1l-.06-1.55.48,0,.07,1.61c0,.94-.42,1.34-1.43,1.25A1.45,1.45,0,0,1,36.75,181Z"/><path class="cls-2" d="M41.18,179.81l0,.47a1.14,1.14,0,0,1,1.16-.44,1.31,1.31,0,0,1,1.33,1.29l.08,1.8-.48,0-.07-1.73a1,1,0,0,0-1-1,.8.8,0,0,0-1,.87l.07,1.69-.48,0-.12-2.9Z"/><path class="cls-2" d="M46.23,180.2a2,2,0,0,1,1.85,1.64v.09L45,181.64a1.5,1.5,0,0,0,1.48,1.3,1.37,1.37,0,0,0,1.21-.42l.35.19a1.71,1.71,0,0,1-1.56.56,2,2,0,0,1-2-1.69A1.44,1.44,0,0,1,46.23,180.2ZM45,181.41l2.64.24a1.49,1.49,0,0,0-1.37-1.15A1,1,0,0,0,45,181.41Z"/><path class="cls-2" d="M19.32,171.5l-.09-4.7,1.37.15c1.14.12,1.81.6,1.83,1.37a.91.91,0,0,1-.79,1c.85.19,1.34.66,1.36,1.32s-.67,1.21-1.83,1.09Zm.64-4.17,0,1.59.51.05c.81.09,1.25-.15,1.24-.66s-.46-.84-1.27-.92Zm0,2.1,0,1.68.9.09c.86.09,1.32-.16,1.31-.69s-.5-.9-1.34-1Z"/><path class="cls-2" d="M24,167.81a.45.45,0,0,1,.44.39c0,.18-.18.32-.42.29a.47.47,0,0,1-.44-.39C23.58,167.91,23.77,167.78,24,167.81ZM23.76,172l-.07-2.9.69.07.07,2.9Z"/><path class="cls-2" d="M25.4,169.23l.68.07,0,.51a1,1,0,0,1,1.06-.48,1.93,1.93,0,0,1,.64.18l-.26.44a1.42,1.42,0,0,0-.53-.16.77.77,0,0,0-.89.87l0,1.54-.68-.07Z"/><path class="cls-2" d="M28.37,169.55l0-1.08.67.07,0,1.08.86.09v.41l-.85-.09,0,1.63a.45.45,0,0,0,.42.49.73.73,0,0,0,.3,0l.3.4a1.32,1.32,0,0,1-.74.11,1,1,0,0,1-1-1l0-1.67-.4,0v-.42Z"/><path class="cls-2" d="M31.2,167.91l.07,2.31a1.59,1.59,0,0,1,2.55,1l.06,1.8-.67-.07-.06-1.69a.92.92,0,0,0-.93-.93c-.59-.06-.94.23-.93.61l.06,1.82-.67-.07-.15-4.83Z"/><path class="cls-2" d="M34.57,171.63c0-.87.69-1.44,1.69-1.33a2,2,0,0,1,1.4.77l-.09-2.47.65.07.19,4.79-.66-.07,0-.54a1.47,1.47,0,0,1-1.36.49A1.91,1.91,0,0,1,34.57,171.63Zm2,1.25c.72.08,1.21-.31,1.19-.92a1.32,1.32,0,0,0-1.26-1.18c-.71-.07-1.21.31-1.19.92A1.3,1.3,0,0,0,36.53,172.88Z"/><path class="cls-2" d="M39.15,172.11c0-.87.66-1.44,1.66-1.33a2,2,0,0,1,1.38.77l0-.54.65.07.12,2.84-.65-.07,0-.53a1.47,1.47,0,0,1-1.34.48A1.87,1.87,0,0,1,39.15,172.11Zm1.94,1.24c.7.08,1.19-.31,1.16-.92A1.28,1.28,0,0,0,41,171.27c-.7-.08-1.19.3-1.17.91A1.31,1.31,0,0,0,41.09,173.35Z"/><path class="cls-2" d="M43.93,171.2l1.35,2.27,1-2,.74.08-2.22,4-.75-.07.86-1.51-1.75-2.85Z"/><path class="cls-2" d="M123.34,156.58l2.56,3.4-.39-3.09.52.07.5,3.9-.53-.07-2.55-3.39.38,3.1-.53-.07-.49-3.92Z"/><path class="cls-2" d="M128.29,158.65a1.88,1.88,0,0,1,1.65,1.49c.1.75-.47,1.19-1.31,1.08a1.85,1.85,0,0,1-1.65-1.49C126.88,159,127.46,158.54,128.29,158.65Zm.29,2.17c.55.07.91-.24.84-.75a1.23,1.23,0,0,0-1.07-1c-.56-.07-.92.24-.85.75A1.23,1.23,0,0,0,128.58,160.82Z"/><path class="cls-2" d="M130.41,159l-.12-.9.49.07.12.9.63.08.05.35-.63-.09.18,1.36c0,.25.15.39.34.41a.4.4,0,0,0,.22,0l.25.34a1,1,0,0,1-.53.08.89.89,0,0,1-.77-.84l-.19-1.39-.29,0,0-.35Z"/><path class="cls-2" d="M133.23,159.34a1.79,1.79,0,0,1,1.5,1.4.38.38,0,0,1,0,.1l-2.23-.3a1.22,1.22,0,0,0,1.07,1,.8.8,0,0,0,.79-.29l.38.22a1.08,1.08,0,0,1-1.14.43,1.84,1.84,0,0,1-1.61-1.46C131.9,159.7,132.45,159.23,133.23,159.34Zm-.74.95,1.74.24a1.18,1.18,0,0,0-1-.86A.6.6,0,0,0,132.49,160.29Z"/><path class="cls-2" d="M135.47,161.52a1.19,1.19,0,0,0,.71.38c.27,0,.49-.05.46-.31s-.31-.39-.69-.56-.78-.37-.84-.78.27-.61.8-.54a1.42,1.42,0,0,1,.84.43l-.21.17A1,1,0,0,0,136,160c-.28,0-.43.07-.41.26s.25.32.61.48.9.49,1,.9-.28.66-.87.58a1.58,1.58,0,0,1-1.05-.57Z"/><path class="cls-4" d="M220.72,199.31l-89.08-8a6.39,6.39,0,0,1-5.61-5.22l-2.15-17.26c-.31-2.53,1.65-4.28,4.35-3.93l87.53,11.33a5.89,5.89,0,0,1,4.52,4.42l3.26,14.92C224,197.8,222.78,199.49,220.72,199.31Z"/><path class="cls-5" d="M231.67,240.86l-36.5-.66a2.75,2.75,0,0,1-2.43-2.27l-1.63-9a1.64,1.64,0,0,1,1.62-2.11l36.21,1.46a2.66,2.66,0,0,1,2.21,2.11L233,238.8C233.24,240,232.65,240.88,231.67,240.86Z"/><path class="cls-3" d="M206.61,235.49l-.79-4,.91,0a2.5,2.5,0,0,1,2.2,2.06c.22,1.12-.39,2-1.41,1.95Zm-.14-3.46L207,235h.31c.73,0,1.16-.59,1-1.42a1.78,1.78,0,0,0-1.57-1.5Z"/><path class="cls-3" d="M210.28,233a1.6,1.6,0,0,1,1.4,1.3s0,.08,0,.12l-1.82-.05a1,1,0,0,0,.89.8.57.57,0,0,0,.58-.36l.41.23a.88.88,0,0,1-.92.6,1.65,1.65,0,0,1-1.5-1.35A1,1,0,0,1,210.28,233Zm-.45,1.07,1.31,0a.92.92,0,0,0-.79-.7C210,233.44,209.78,233.71,209.83,234.11Z"/><path class="cls-3" d="M212.35,235.64l-.83-4.15.51,0,.83,4.14Z"/><path class="cls-3" d="M214,233.15a1.57,1.57,0,0,1,1.38,1.29.6.6,0,0,1,0,.12l-1.79-.05a.93.93,0,0,0,.88.8A.56.56,0,0,0,215,235l.41.22a.86.86,0,0,1-.91.59,1.63,1.63,0,0,1-1.48-1.33C212.88,233.68,213.29,233.13,214,233.15Zm-.44,1.06,1.29,0a.89.89,0,0,0-.78-.69C213.67,233.55,213.46,233.82,213.51,234.21Z"/><path class="cls-3" d="M215.56,233.28l-.18-.92.5,0,.19.91.5,0,.08.43h-.5l.26,1.25c0,.22.15.34.29.35a.23.23,0,0,0,.16-.06l.28.41a.62.62,0,0,1-.45.15c-.39,0-.67-.32-.78-.83l-.26-1.29h-.26l-.09-.43Z"/><path class="cls-3" d="M217.92,233.27a1.57,1.57,0,0,1,1.37,1.28s0,.08,0,.13l-1.77-.05a.94.94,0,0,0,.88.79.56.56,0,0,0,.56-.35l.4.22a.85.85,0,0,1-.89.59,1.63,1.63,0,0,1-1.47-1.33C216.87,233.8,217.27,233.25,217.92,233.27Zm-.43,1.06,1.28,0a.9.9,0,0,0-.78-.69C217.65,233.67,217.44,233.94,217.49,234.33Z"/></g></g></svg>