<svg xmlns="http://www.w3.org/2000/svg" viewBox="0 0 210.11 219.79"><defs><style>.cls-1{fill:none;stroke:#afafaf;stroke-linecap:round;stroke-linejoin:round;stroke-width:0.5px;}</style></defs><title>Asset 10</title><g id="Layer_2" data-name="Layer 2"><g id="Layer_5" data-name="Layer 5"><path class="cls-1" d="M5.18,106.61c-2.29,1.3-5.51,1.73-4.84,5.64,2.16,12.45,2.45,25.31,8,37a17.83,17.83,0,0,0,7.27,8c1,2.67-3.1,3.12-2.12,6.72,13.6,18.44,30.81,34.53,52.11,45.43,22.13,11.32,44,7.59,57.1-10.26,8.67-11.84,7.21-24.83,4.53-37.81-.47-2.3-2.24-4.59-2.13-8.07-12.57,6.54-24.39,14-37.15,19-16.48,6.54-33.71,8.59-50.61.26"/><path class="cls-1" d="M97.75,54.29c1-11.54,2.58-23,.12-34.64C94.81,5.08,87,.1,71.94,3.35A69.53,69.53,0,0,1,61.52,5.1c-3.47.2-6.75-3.34-10.9-.4,2.51,4.87-.28,8.05-4.41,10.09C28.53,23.52,16.44,37.54,8.54,55.16c-3.83,8.55-5.21,17.93-7,27.22S2.43,99,6,106.59c1.57,3.35,3.68,6.57,7.23,8,13.93,5.69,27.21,12.94,41.81,17a10.91,10.91,0,0,0,8.52-.56c-2.44-6.61-8.71-7.8-13.43-9.74-12.3-5-25.1-8.87-37.74-13.08-1.22-.4-2.67-2-4,0"/><path class="cls-1" d="M16.45,133.17c18.18,13.76,38.49,15.26,60.42,12.46,12.07-1.53,24.61-4.94,37-.43,2.56.93,4.93-1,6.31-2.48,6.11-6.54,14.09-9.65,21.68-13.87,20.33-11.3,35.36-27.83,42.83-50.41"/><path class="cls-1" d="M157.16,31.12c13.58,12.23,14.31,19.59,7.45,39.28-4,11.39-10.16,21.17-19.41,28.92-1.88,1.58-1.08,4.39-4.42,5.34,5.34,3,7.89,2,11-2,10.08-12.85,17.63-27,24.28-41.84,2.05-4.58-1.66-10,5.61-12.92C186.9,54.16,192.52,60.16,195,68c3.43,10.83,8.93,22.08.06,32.91-4.2,5.14-8.16,10.56-14.36,13.86-3.83,2-6.86,5.53-10.58,7.84-3,1.87-4.19,4-3.81,8.62,10.89-3.58,19.89-8.17,26.34-16.63a92.14,92.14,0,0,0,11.14-19.33c6.53,15.48,7.56,31.44,4.13,47.53-2.23,10.47-5.06,20.62-12.68,29.11-14.36,16-26.37,18.62-44.36,11.1-5.39-2.25-10.93-4.54-14.5-9.61-1.61-2.3-3.9-3.32-6.45-4"/><path class="cls-1" d="M137.19,17.26c7.49,3.41,14,8.51,20,13.86"/><path class="cls-1" d="M111.43,10.82c9.82,19.06,4.18,38.65,1.4,57.93-1.6,11.15-6.43,21.71-7.93,33-.12.89-1.52,1.62-2.32,2.42"/><path class="cls-1" d="M152.48,41.41a83.52,83.52,0,0,1-9.7,41.83c-5.15,10-12.09,18.81-19.33,27.35-2.55,3-4.27,6.47-6.46,9.65-5.1,7.36-4.19,14.19.88,21"/><path class="cls-1" d="M18.06,85.68c19.2,17.88,41.87,29.54,66.83,37,6.1,1.82,11.57,4.28,15.27,9.72"/><path class="cls-1" d="M195.15,122.71c-13.43,14.63-31.46,19-49.91,22.56-6.52,1.25-13.39,1.13-19.32,4.81"/><path class="cls-1" d="M38.18,60.73C52.47,77.24,72.44,84.6,91.34,93.66c1.09.53,2.65.07,4,.07"/><path class="cls-1" d="M125.92,154.1c8.88,2.11,16.59,7.51,25.75,8.9,8.83,1.34,17.54,3.68,26.59,1.63,1-.22,2.13.47,3.2.74"/><path class="cls-1" d="M90.5,4.38C90.86.91,93.19.44,96.14.31c9.4-.43,18.42,1.51,27.37,4.07,10.65,3.06,13.06,11,13,20.93-.1,10.19.55,20.39.69,30.59.08,6.41-1.76,10.43-6.41,15.29-5.37-6.44-4.32-17.95,3.22-35.42"/><path class="cls-1" d="M16.45,159.74c14.88,6.36,29.57,1.23,44.26-.9,5.18-.76,10.17-2.77,15.32-3.87,3.17-.68,6.19,0,8,3.23-9.32,12.35-34,15.14-49.85,5.56"/><path class="cls-1" d="M120.29,157.32a109.62,109.62,0,0,1-28.12,39.5c-2.89,2.61-6.92,2.32-9.72,4.77"/><path class="cls-1" d="M130.75,177.44c5.29,5.85,7.57,13.39,11.23,20.15s7.58,13.56,12.94,19.28c1.84,2,3.73,4.88,6.18,0-5.27-9.16-11.06-19-16.6-29-1.17-2.11-4-4.16-1.67-7.21"/><path class="cls-1" d="M76,11.63c4.52,9.42,7.52,18.87,5.89,29.82-1.23,8.27,2.85,16.2,5.36,24.11a472.29,472.29,0,0,0,24.16,61.17"/><path class="cls-1" d="M63.14,18.07c8.23,6,11.58,15.73,17.7,23.34"/><path class="cls-1" d="M43,42.21c3.1,10.21,10.85,15.56,20.13,19.31a2.37,2.37,0,0,0,.8,0v-.8C58.67,51.27,53.78,41.51,44.62,35"/><path class="cls-1" d="M35,76c4.38,9.32,12,14.46,21.83,16.85C46.59,77.54,27.58,72.51,16.45,58.31"/><path class="cls-1" d="M84.87,61.53C79,62.88,75.69,57.91,71.15,56c-3.2-1.37-5-6.2-9.62-4.11"/><path class="cls-1" d="M92.92,109c-5.59-7.89-13.56-11.26-21.39-8.7a46.58,46.58,0,0,0,11.69,9.57c3.15,1.89,5.94,3.09,8.89-.06"/><path class="cls-1" d="M112.24,130c-3.34,2.22-7.18-2.13-10.47.81"/><path class="cls-1" d="M40.6,39c3.3,2.78,6.91,5,11.27,5.64"/></g></g></svg>