<svg xmlns="http://www.w3.org/2000/svg" viewBox="0 0 246.87 190.61"><defs><style>.cls-1{fill:none;stroke:#afafaf;stroke-linecap:round;stroke-linejoin:round;stroke-width:0.5px;}</style></defs><title>Asset 9</title><g id="Layer_2" data-name="Layer 2"><g id="Layer_5" data-name="Layer 5"><path class="cls-1" d="M230,49.52c2.89,1.87,7.22-1.27,9.46,2.54a58.09,58.09,0,0,1,6.92,19c.45,2.45.07,5.06.07,7.31-4,1.75-7.18,1.45-10.79.4-9.16-2.67-17.84-6.36-26.63-10A59.5,59.5,0,0,0,175.58,65c-6.11,1-12.66.68-18.91,1.64-11,1.7-22.35,1.73-33,6.08-2.71,1.11-6.26.17-10.6.17,3.23-11.06,2-21.79-2-32.26"/><path class="cls-1" d="M124.4,23.59c-1.06-5.06-1.9-10.18-3.22-15.17C119.23,1,112.56-2,106.74,2.15a170,170,0,0,1-54,26.39,302.44,302.44,0,0,1,23,24.77"/><path class="cls-1" d="M35.85,151.35c-3.25,12.67-6.23,25.39-7.07,39,5.12-.69,6.81-2.6,8-7.31,2.6-10.49,2.61-21.42,6-31.7"/><path class="cls-1" d="M50.39,83c-4.63-4.85-9-10-14-14.49-8.33-7.63-13.39-5.2-19.5,0A51.72,51.72,0,0,0,2.32,89.38c5.52,4,13.24,2.6,18.35,7.58"/><path class="cls-1" d="M73.8,57.11C68.32,52.05,62.93,46.88,57.33,42s-11.5-4.6-16.38.64a61.83,61.83,0,0,0-7,8.85C29.82,58,31.84,61.86,40.27,64.07"/><path class="cls-1" d="M175,20.42c-2.7-7.37-10.56-7.17-15.9-10.62s-12-4.72-18.28-6.38c-14.16-3.77-15,.2-12,13.21.29,1.25.44,2.53.65,3.79"/><path class="cls-1" d="M161.71,12.83c-8.09,1-16.28.86-24.08,4.31a156.46,156.46,0,0,0-32.61,20c-5.3,4.14-7.72,11.63-9,18.69a4,4,0,0,1-1.33,2.51"/><path class="cls-1" d="M221.17,52.68c2-3,5.78-1.88,8.22-3.8,5.85-4.6,6.82-11.13,2.52-17.69-2.16-3.3-4.78-6.36-8.25-8.17-10.22-5.33-11.82-6.15-20.25.5-11.1,8.78-19.86,19.79-29.68,29.79"/><path class="cls-1" d="M25.73,97.59C17.29,98.18,8.86,99,.55,96.66-1.32,110.73,5.82,135.57,14.38,145c6.67,7.34,15.48,5.84,24,5.08,1.48-.13,2.95-.41,4.42-.62"/><path class="cls-1" d="M197.13,21.06A27.62,27.62,0,0,0,184,31.26c-8.32,12.86-20.24,21.63-32.39,30.28"/><path class="cls-1" d="M138.94,24.22c.59,12.08-.93,23.71-6.17,34.86-1.76,3.73-6,6.4-5.21,11.31"/><path class="cls-1" d="M61.15,102.65c10.26,1.53,12.12-2.8,9.59-11.42-1.42-4.86-3.42-9.5-7.2-12.44-4-3.14-3.77-5.68-1.12-9C70.6,59.47,79.23,49.7,91.73,44.82c.79.73,1.67,1.21,1.61,1.52C91.15,58.1,94,70,92.13,81.77c-.85,5.37-5,8-12,7.6"/><path class="cls-1" d="M127.56,30.54c3,12.67.66,24.25-7,34.79"/><path class="cls-1" d="M209.15,19.16c-1.81-3.88-5.6-1.78-8.27-2.3-10.84-2.13-21.2-1.64-29.78,7.26a214.52,214.52,0,0,0-16.36,19.69c-1,1.32-1.43,3.42-3.78,3.18"/><path class="cls-1" d="M168.67,55.84c3.87-2.93,8.47-2.25,12.64-1.76,9.77,1.15,16.86-3.53,23.38-9.66,3.79-3.57,7.21-7.55,10.78-11.35,1.18-1.25,3.19-2.45,1.23-4.39-1.7-1.69-3.89-2.7-6.26-1.27a35.61,35.61,0,0,0-6.31,4.44C198.74,37,193.71,42.57,187.63,47c-2.3,1.65-2.8,3.79-2.51,6.35"/><path class="cls-1" d="M223.7,76.72c3,5,7.35,8.66,11.42,12.61,3.58,3.47,7.64,3.74,9.37.62,2-3.58.74-6.48-3.06-8.21-.34-.15-.44-.81-.65-1.23"/><path class="cls-1" d="M51.66,81.78c-7,9.38-11.21,20.16-15.08,31a32.73,32.73,0,0,0-.73,18.31"/><path class="cls-1" d="M33.32,105.81c-4.54.74-8.85-.91-13.28-1.28-5.77-.48-11.4.68-17.08,1.28"/><path class="cls-1" d="M34.58,116.56c-10.63-2-20.52,1-30.36,4.43"/><path class="cls-1" d="M150.33,23c-2.11,7.8-3.8,15.76-6.55,23.32a11.52,11.52,0,0,0-.41,7"/><path class="cls-1" d="M169.94,17.26c-6.9,6.45-12.26,14.07-17.11,22.12-3.23,5.35-3.51,12.59-10.07,15.86-1.29.64-.44,2.08-.65,3.13"/><path class="cls-1" d="M165.51,36.24c-4.77,7.71-9.74,15.25-16.4,21.55-2.05,1.94-3.91,2.55-6.37,1.22"/><path class="cls-1" d="M119.34,34.34c1.5,10.07,2.74,20.17,1.23,30.35-.4,2.72-2.34,4.73-3.76,7"/><path class="cls-1" d="M106.05,44.46c1.27,4.85,2.86,9.64,3.69,14.56.63,3.71-.87,7.32-2.42,10.74"/><path class="cls-1" d="M219.9,57.74l-7.39,6,28.27,9.18"/><path class="cls-1" d="M177.53,29.28c-2.25,6.35-7.19,10.95-10.81,16.41-1.22,1.84-3.49,3-3.11,5.73"/><path class="cls-1" d="M79.49,66.6c5.66,6.08,6.32,13.79,7,21.5"/><path class="cls-1" d="M219.27,54.58c-7.75-1.11-13.34,3.88-19.61,7"/><path class="cls-1" d="M50.39,45.09c6.6,4.62,11.39,11,16.45,17.08"/><path class="cls-1" d="M96.57,17.89a36.47,36.47,0,0,0,7,17.71"/><path class="cls-1" d="M34.58,137.44c-4.44,1.9-9.28,1.65-13.92,2.47-1.38.25-2.88-.18-3.79,1.32"/><path class="cls-1" d="M101,54c3.27,5.45,3.06,11.78,4.46,17.7a.84.84,0,0,0,.59,0,3.8,3.8,0,0,0,.65-.62"/><path class="cls-1" d="M69.37,31.18A72.42,72.42,0,0,0,80.75,48.25"/><path class="cls-1" d="M20.67,87.47c6.66.9,13.78-.19,19.6,4.43"/><path class="cls-1" d="M234.45,55.21H219.91c-.34,4,2.36,3.72,5.05,3.84,3.4.15,7-1,10.12,1.22"/><path class="cls-1" d="M61.15,77.35c-2.36,0-2.91,2.86-5.66,2.47.88,4.59,1.83,7.87,4.85,11s5.2,7.08,4.6,11.85"/><path class="cls-1" d="M66.84,71.66c4.41,3.7,6.26,9,8.85,13.91"/><path class="cls-1" d="M39.64,65.33q6,6.65,12,13.28"/><path class="cls-1" d="M46,134.59c-1.62,6.22-2.86,12.44,0,18.66"/><path class="cls-1" d="M75.69,61.54c.13,2.16,4.42,2.68,1.59,6.55-1.8,2.46-.11,7.17,1.62,10.5,1.59,3.06,1.86,5.93,0,8.88"/><path class="cls-1" d="M64.31,103.91c-2.13,3.36-1.78,9.19-8.22,8.23"/><path class="cls-1" d="M54.51,100.75c3.48,6.46,1.82,11.91-3.51,16.41-2.74,2.31-4,5.2-2.38,8.19,1.91,3.57.21,5.53-2,7.66"/><path class="cls-1" d="M104.79,72.29c-1.23,7.16-5.88,11.07-12,10.12"/><path class="cls-1" d="M57.35,89.37c-.63,1-1.94,2.21-1.79,3.14,1.1,6.74-2.65,8.65-8.33,8.87"/><path class="cls-1" d="M47.23,122.89c-5.4.88-7.26,6.26-11.21,9.1-3.27,2.34.42,6.5.66,9.86.15,2,2.33,3.81,3.59,5.71"/><path class="cls-1" d="M77,87.15c3.76,3.3,2.16,7.43-3.8,9.81"/><path class="cls-1" d="M113.64,73.55c-2.5,2.31-5.1,4.4-8.85,3.8"/><path class="cls-1" d="M47.86,119.09c-3-2.93-5.44.85-8.22.64"/><path class="cls-1" d="M70,67.23c1.46,3.17,3.51,5.77,7,7"/><path class="cls-1" d="M44.7,103.91c3.3.44,5.77,2.42,8.22,4.43"/><path class="cls-1" d="M225.6,30.54c-2.53,1.18-5.06,2.25-7.59,0"/></g></g></svg>